<svg width="115" height="38" viewBox="0 0 115 38" fill="none" xmlns="http://www.w3.org/2000/svg">
<rect width="115" height="37.0621" rx="3" fill="#F59E0B"/>
<mask id="path-2-inside-1_674_769" fill="white">
<path d="M8.21505 9.08532C7.65083 9.21321 7.13927 9.49156 6.93615 9.78496C6.47726 10.4395 5.10808 12.9145 5.04038 13.2229C4.71689 14.6598 6.35689 16.9694 9.25322 19.1661C9.64441 19.4595 10.1635 19.8356 10.4117 19.9936C10.8406 20.2795 10.8556 20.287 10.9609 20.1441C11.2317 19.7754 11.2317 19.7529 10.8556 19.4971C10.6525 19.3692 10.1334 18.9855 9.68955 18.6545L8.87707 18.0527L9.18551 17.5035L9.48643 16.9468L9.23817 16.7963C9.10276 16.7136 8.97487 16.6459 8.9523 16.6459C8.92973 16.6459 8.79432 16.849 8.65891 17.0973C8.51597 17.3455 8.37303 17.5486 8.34294 17.5486C8.32037 17.5486 7.9367 17.1725 7.49285 16.7211L6.69542 15.8936L6.81579 15.6453C6.89102 15.5174 7.02643 15.2767 7.12423 15.1187C7.33487 14.7802 7.31982 14.6974 7.00386 14.5169L6.77817 14.3815L6.53744 14.8103L6.2967 15.2316L6.16129 15.0585C5.98826 14.8329 5.73248 14.1558 5.6723 13.7872C5.61212 13.411 5.69487 13.1929 6.21395 12.3127L6.63524 11.5905L6.95872 12.2374C7.13175 12.591 7.47028 13.1327 7.70349 13.4411C8.66643 14.6974 10.818 16.5556 12.5708 17.6389L13.2629 18.0752L13.4059 17.842C13.4886 17.7141 13.5338 17.5637 13.5187 17.5185C13.4961 17.4734 13.2178 17.2703 12.8943 17.0596C10.2989 15.4272 8.25267 13.4486 7.5079 11.8613C6.88349 10.5297 7.40258 9.73982 8.96734 9.66459C11.4875 9.54422 15.7154 11.2143 19.1233 13.6818L19.8982 14.2385L20.1013 13.9978L20.3119 13.7496L20.1013 13.5765C19.9884 13.4787 19.4543 13.1026 18.9127 12.734C16.4 11.0338 13.6917 9.79248 11.2468 9.23578C10.1936 8.99505 8.88459 8.92734 8.21505 9.08532Z"/>
</mask>
<path d="M8.21505 9.08532C7.65083 9.21321 7.13927 9.49156 6.93615 9.78496C6.47726 10.4395 5.10808 12.9145 5.04038 13.2229C4.71689 14.6598 6.35689 16.9694 9.25322 19.1661C9.64441 19.4595 10.1635 19.8356 10.4117 19.9936C10.8406 20.2795 10.8556 20.287 10.9609 20.1441C11.2317 19.7754 11.2317 19.7529 10.8556 19.4971C10.6525 19.3692 10.1334 18.9855 9.68955 18.6545L8.87707 18.0527L9.18551 17.5035L9.48643 16.9468L9.23817 16.7963C9.10276 16.7136 8.97487 16.6459 8.9523 16.6459C8.92973 16.6459 8.79432 16.849 8.65891 17.0973C8.51597 17.3455 8.37303 17.5486 8.34294 17.5486C8.32037 17.5486 7.9367 17.1725 7.49285 16.7211L6.69542 15.8936L6.81579 15.6453C6.89102 15.5174 7.02643 15.2767 7.12423 15.1187C7.33487 14.7802 7.31982 14.6974 7.00386 14.5169L6.77817 14.3815L6.53744 14.8103L6.2967 15.2316L6.16129 15.0585C5.98826 14.8329 5.73248 14.1558 5.6723 13.7872C5.61212 13.411 5.69487 13.1929 6.21395 12.3127L6.63524 11.5905L6.95872 12.2374C7.13175 12.591 7.47028 13.1327 7.70349 13.4411C8.66643 14.6974 10.818 16.5556 12.5708 17.6389L13.2629 18.0752L13.4059 17.842C13.4886 17.7141 13.5338 17.5637 13.5187 17.5185C13.4961 17.4734 13.2178 17.2703 12.8943 17.0596C10.2989 15.4272 8.25267 13.4486 7.5079 11.8613C6.88349 10.5297 7.40258 9.73982 8.96734 9.66459C11.4875 9.54422 15.7154 11.2143 19.1233 13.6818L19.8982 14.2385L20.1013 13.9978L20.3119 13.7496L20.1013 13.5765C19.9884 13.4787 19.4543 13.1026 18.9127 12.734C16.4 11.0338 13.6917 9.79248 11.2468 9.23578C10.1936 8.99505 8.88459 8.92734 8.21505 9.08532Z" fill="black"/>
<path d="M8.21505 9.08532L10.0522 16.8715L10.0179 16.8796L9.98353 16.8874L8.21505 9.08532ZM6.93615 9.78496L13.5137 14.3386L13.5001 14.3582L13.4865 14.3777L6.93615 9.78496ZM5.04038 13.2229L12.8543 14.9382L12.8497 14.9591L12.845 14.98L5.04038 13.2229ZM9.25322 19.1661L4.45321 25.5661L4.43599 25.5532L4.41884 25.5401L9.25322 19.1661ZM10.4117 19.9936L14.7068 13.2443L14.7786 13.29L14.8494 13.3372L10.4117 19.9936ZM10.9609 20.1441L17.408 24.8807L17.4014 24.8896L10.9609 20.1441ZM10.8556 19.4971L15.1181 12.7272L15.2375 12.8024L15.3541 12.8817L10.8556 19.4971ZM9.68955 18.6545L14.4514 12.2261L14.4618 12.2338L14.4721 12.2415L9.68955 18.6545ZM8.87707 18.0527L4.11524 24.4811L-1.55135 20.2836L1.90191 14.1351L8.87707 18.0527ZM9.18551 17.5035L16.2232 21.3076L16.1924 21.3646L16.1607 21.421L9.18551 17.5035ZM9.48643 16.9468L13.6328 10.1052L20.1451 14.052L16.5241 20.7509L9.48643 16.9468ZM9.23817 16.7963L5.09175 23.6379L5.07914 23.6303L5.06656 23.6226L9.23817 16.7963ZM8.65891 17.0973L15.6821 20.9281L15.6379 21.009L15.5919 21.089L8.65891 17.0973ZM7.49285 16.7211L1.78865 22.3302L1.76029 22.3014L1.73222 22.2723L7.49285 16.7211ZM6.69542 15.8936L0.934791 21.4447L-2.93812 17.4257L-0.503096 12.4034L6.69542 15.8936ZM6.81579 15.6453L-0.382729 12.1552L-0.242574 11.8661L-0.0796909 11.5892L6.81579 15.6453ZM7.12423 15.1187L0.322102 10.9079L0.326927 10.9001L0.33177 10.8923L7.12423 15.1187ZM7.00386 14.5169L3.03474 21.4628L2.96086 21.4206L2.88789 21.3768L7.00386 14.5169ZM6.77817 14.3815L-0.197702 10.4652L3.83328 3.28501L10.8941 7.52154L6.77817 14.3815ZM6.53744 14.8103L13.5133 18.7266L13.4985 18.753L13.4834 18.7794L6.53744 14.8103ZM6.2967 15.2316L13.2427 19.2007L7.33509 29.5389L-0.00334072 20.162L6.2967 15.2316ZM6.16129 15.0585L-0.138753 19.989L-0.163316 19.9576L-0.187564 19.926L6.16129 15.0585ZM5.6723 13.7872L-2.22316 15.0762L-2.22521 15.0637L-2.22722 15.0511L5.6723 13.7872ZM6.21395 12.3127L13.1242 16.3436L13.1146 16.3601L13.1049 16.3765L6.21395 12.3127ZM6.63524 11.5905L-0.274999 7.5595L7.17679 -5.21501L13.7907 8.01276L6.63524 11.5905ZM6.95872 12.2374L14.1141 8.65974L14.1294 8.69031L14.1445 8.72102L6.95872 12.2374ZM7.70349 13.4411L1.35402 18.3078L1.33805 18.2869L1.32221 18.266L7.70349 13.4411ZM12.5708 17.6389L16.7766 10.8337L16.807 10.8525L16.8372 10.8715L12.5708 17.6389ZM13.2629 18.0752L20.0838 22.2557L15.8501 29.1634L8.99652 24.8426L13.2629 18.0752ZM13.4059 17.842L6.58506 13.6615L6.63617 13.5782L6.68931 13.496L13.4059 17.842ZM13.5187 17.5185L20.6741 13.9408L20.9284 14.4494L21.1082 14.9887L13.5187 17.5185ZM12.8943 17.0596L17.1537 10.2878L17.207 10.3213L17.2597 10.3557L12.8943 17.0596ZM7.5079 11.8613L0.265459 15.2594L0.264714 15.2578L7.5079 11.8613ZM8.96734 9.66459L8.58317 1.67382L8.58569 1.6737L8.96734 9.66459ZM19.1233 13.6818L14.4555 20.1789L14.4435 20.1703L14.4315 20.1616L19.1233 13.6818ZM19.8982 14.2385L26.0125 19.3975L21.2403 25.0534L15.2304 20.7356L19.8982 14.2385ZM20.1013 13.9978L13.9869 8.83885L13.9941 8.83041L14.0012 8.822L20.1013 13.9978ZM20.3119 13.7496L25.3898 7.56775L31.671 12.7273L26.412 18.9254L20.3119 13.7496ZM20.1013 13.5765L15.0234 19.7583L14.9417 19.6912L14.8618 19.622L20.1013 13.5765ZM18.9127 12.734L23.3959 6.10823L23.4048 6.11423L23.4137 6.12025L18.9127 12.734ZM11.2468 9.23578L9.47071 17.0361L9.46419 17.0346L11.2468 9.23578ZM8.21505 9.08532L9.98353 16.8874C10.3758 16.7985 10.8084 16.6489 11.2751 16.394C11.5154 16.2628 11.834 16.0657 12.1877 15.7782C12.5247 15.5044 13.0288 15.0391 13.5137 14.3386L6.93615 9.78496L0.358612 5.23128C1.44947 3.6556 2.82108 2.78049 3.60523 2.35217C4.51959 1.85273 5.49005 1.50006 6.44658 1.28324L8.21505 9.08532ZM6.93615 9.78496L13.4865 14.3777C13.5507 14.2861 13.567 14.256 13.5175 14.3355C13.4789 14.3975 13.4216 14.4919 13.3469 14.6186C13.1975 14.8719 13.0189 15.1856 12.8449 15.5007C12.6678 15.8215 12.523 16.0938 12.4336 16.2699C12.3856 16.3644 12.3818 16.3757 12.4039 16.3272C12.4139 16.3053 12.4569 16.2105 12.5124 16.0693C12.5409 15.9971 12.587 15.8762 12.6387 15.7213C12.6653 15.6417 12.6982 15.5387 12.7332 15.4169C12.7674 15.2979 12.8112 15.1347 12.8543 14.9382L5.04038 13.2229L-2.77358 11.5077C-2.62745 10.842 -2.42315 10.3296 -2.37688 10.212C-2.29362 10.0004 -2.21376 9.82016 -2.15899 9.69981C-2.0473 9.45437 -1.92944 9.21661 -1.83235 9.02542C-1.63168 8.63026 -1.39274 8.18508 -1.16176 7.76675C-0.776278 7.06863 -0.12556 5.92158 0.385833 5.19221L6.93615 9.78496ZM5.04038 13.2229L12.845 14.98C13.1826 13.4805 12.8882 12.3431 12.7315 11.8807C12.5677 11.3975 12.4043 11.1962 12.4649 11.2817C12.5903 11.4585 13.0728 12.0223 14.0876 12.792L9.25322 19.1661L4.41884 25.5401C2.53731 24.1131 0.75162 22.4238 -0.586146 20.5375C-1.63452 19.0593 -3.7066 15.6515 -2.76428 11.4659L5.04038 13.2229ZM9.25322 19.1661L14.0532 12.7661C14.2083 12.8824 14.3903 13.0162 14.5498 13.1306C14.6292 13.1876 14.691 13.2311 14.7333 13.2604C14.7872 13.2977 14.7703 13.2848 14.7068 13.2443L10.4117 19.9936L6.11674 26.7429C5.57528 26.3983 4.82779 25.847 4.45321 25.5661L9.25322 19.1661ZM10.4117 19.9936L14.8494 13.3372C15.0047 13.4408 14.9354 13.3927 14.8317 13.3294C14.7663 13.2895 14.5863 13.1808 14.3363 13.0553C14.1033 12.9383 13.6198 12.7094 12.9647 12.5259C12.2842 12.3354 11.2372 12.1422 9.9667 12.284C8.62099 12.4342 7.45542 12.9115 6.52503 13.5174C5.68666 14.0634 5.14867 14.6434 4.91042 14.9151C4.77834 15.0656 4.67928 15.1906 4.62357 15.2623C4.56806 15.3338 4.52781 15.3885 4.52047 15.3985L10.9609 20.1441L17.4014 24.8896C17.3851 24.9118 17.1966 25.1719 16.9389 25.4656C16.678 25.7631 16.1182 26.3637 15.2569 26.9247C12.9209 28.4461 10.4197 28.4287 8.6506 27.9333C7.4521 27.5978 6.58194 27.0389 6.49563 26.9863C6.26521 26.8456 6.03315 26.6893 5.97414 26.65L10.4117 19.9936ZM10.9609 20.1441L4.51386 15.4075C4.66333 15.204 4.38167 15.5645 4.11902 16.0371C3.87677 16.473 2.83369 18.3872 3.24805 21.0214C3.66968 23.7018 5.29257 25.2181 5.71393 25.5977C6.14593 25.987 6.55428 26.2466 6.35711 26.1125L10.8556 19.4971L15.3541 12.8817C15.4077 12.9181 15.54 13.0081 15.687 13.1151C15.8259 13.2162 16.1054 13.424 16.4237 13.7108C16.9424 14.1781 18.6189 15.771 19.0537 18.5351C19.4812 21.253 18.4109 23.258 18.1042 23.8098C17.906 24.1663 17.7196 24.441 17.6282 24.5731C17.5317 24.7125 17.4416 24.8349 17.408 24.8807L10.9609 20.1441ZM10.8556 19.4971L6.59309 26.2669C6.0496 25.9247 5.19905 25.2854 4.90695 25.0675L9.68955 18.6545L14.4721 12.2415C14.6886 12.4029 14.8987 12.5587 15.0699 12.6833C15.1559 12.7459 15.2146 12.7878 15.2489 12.8119C15.2654 12.8236 15.2657 12.8235 15.253 12.8149C15.2455 12.8098 15.1956 12.776 15.1181 12.7272L10.8556 19.4971ZM9.68955 18.6545L4.92772 25.083L4.11524 24.4811L8.87707 18.0527L13.6389 11.6242L14.4514 12.2261L9.68955 18.6545ZM8.87707 18.0527L1.90191 14.1351L2.21035 13.586L9.18551 17.5035L16.1607 21.421L15.8522 21.9702L8.87707 18.0527ZM9.18551 17.5035L2.14785 13.6994L2.44877 13.1427L9.48643 16.9468L16.5241 20.7509L16.2232 21.3076L9.18551 17.5035ZM9.48643 16.9468L5.34001 23.7884L5.09175 23.6379L9.23817 16.7963L13.3846 9.95477L13.6328 10.1052L9.48643 16.9468ZM9.23817 16.7963L5.06656 23.6226C5.10965 23.6489 5.19304 23.6988 5.32164 23.7666C5.37357 23.794 5.53211 23.8771 5.75219 23.9744C5.8536 24.0192 6.08467 24.1192 6.39062 24.2233C6.5443 24.2755 6.80583 24.3594 7.13806 24.437C7.40209 24.4986 8.07579 24.6459 8.9523 24.6459V16.6459V8.64589C10.3991 8.64589 11.5098 9.06425 11.5404 9.07466C11.8582 9.18269 12.104 9.28864 12.2227 9.34112C12.4773 9.45372 12.6805 9.55888 12.7842 9.61353C13.0162 9.73588 13.2313 9.86101 13.4098 9.97009L9.23817 16.7963ZM8.9523 16.6459V24.6459C10.3888 24.6459 11.4889 24.2599 12.0786 24.0093C12.7087 23.7415 13.1799 23.4451 13.4619 23.2523C14.0139 22.8749 14.3935 22.5114 14.5545 22.3528C14.9034 22.0089 15.1376 21.7119 15.2099 21.6198C15.3937 21.3855 15.5118 21.2051 15.5396 21.1627C15.6214 21.0379 15.6633 20.9625 15.6821 20.9281L8.65891 17.0973L1.63574 13.2665C1.78994 12.9837 1.96725 12.6827 2.15622 12.3943C2.23761 12.2701 2.40225 12.0234 2.62206 11.7432C2.7123 11.6282 2.9619 11.3134 3.32304 10.9574C3.49014 10.7927 3.87516 10.4246 4.4316 10.0442C4.67092 9.88058 6.39064 8.64589 8.9523 8.64589V16.6459ZM8.65891 17.0973L15.5919 21.089C15.4302 21.3699 15.2318 21.6909 15.0089 22.0088C14.9138 22.1445 14.7095 22.4305 14.4304 22.7525C14.3103 22.8911 14.0026 23.2401 13.5563 23.6215C13.3388 23.8073 12.9036 24.1614 12.2913 24.508C11.834 24.7669 10.3865 25.5486 8.34294 25.5486V17.5486V9.54864C6.30316 9.54864 4.86027 10.3288 4.40848 10.5846C3.80166 10.9281 3.37268 11.2776 3.16234 11.4574C2.73015 11.8266 2.43969 12.1579 2.33939 12.2736C2.10006 12.5497 1.94608 12.7694 1.90829 12.8233C1.80015 12.9775 1.74472 13.0729 1.72592 13.1056L8.65891 17.0973ZM8.34294 17.5486V25.5486C6.23033 25.5486 4.70701 24.6753 4.66185 24.652C4.23834 24.4327 3.92705 24.2226 3.7954 24.1319C3.5077 23.9336 3.2945 23.7583 3.22308 23.6993C3.04658 23.5535 2.90632 23.4252 2.85176 23.375C2.71658 23.2509 2.585 23.1238 2.48928 23.0304C2.28184 22.828 2.03323 22.579 1.78865 22.3302L7.49285 16.7211L13.197 11.112C13.3963 11.3147 13.5615 11.4794 13.6625 11.5779C13.721 11.635 13.7173 11.6301 13.6743 11.5906C13.6658 11.5828 13.5627 11.4874 13.4132 11.3639C13.3553 11.3161 13.1531 11.1492 12.8737 10.9567C12.7462 10.8689 12.4384 10.6609 12.0177 10.4431C11.8057 10.3334 11.4371 10.154 10.9561 9.98766C10.5534 9.84839 9.60054 9.54864 8.34294 9.54864V17.5486ZM7.49285 16.7211L1.73222 22.2723L0.934791 21.4447L6.69542 15.8936L12.456 10.3425L13.2535 11.17L7.49285 16.7211ZM6.69542 15.8936L-0.503096 12.4034L-0.382729 12.1552L6.81579 15.6453L14.0143 19.1355L13.8939 19.3838L6.69542 15.8936ZM6.81579 15.6453L-0.0796909 11.5892C-0.080627 11.5908 -0.0738668 11.5792 -0.0487843 11.5357C-0.0300894 11.5033 0.00512218 11.4421 0.0365806 11.3877C0.0935874 11.2892 0.204344 11.0981 0.322102 10.9079L7.12423 15.1187L13.9264 19.3296C13.9421 19.3041 13.9462 19.2968 13.9341 19.3172C13.9237 19.3349 13.9085 19.3609 13.8865 19.3989C13.8625 19.4405 13.8436 19.4733 13.8127 19.5269C13.7882 19.5694 13.7498 19.636 13.7113 19.7015L6.81579 15.6453ZM7.12423 15.1187L0.33177 10.8923C0.314462 10.9201 0.251822 11.0213 0.172028 11.1673C0.0952187 11.3079 -0.0451436 11.5763 -0.189099 11.9361C-0.45268 12.5951 -0.99927 14.2237 -0.586425 16.3109C-0.149539 18.5196 1.08778 19.9119 1.823 20.576C2.45603 21.1479 3.02891 21.4595 3.03474 21.4628L7.00386 14.5169L10.973 7.57095C11.1368 7.66456 11.83 8.05424 12.5482 8.70294C13.3685 9.44395 14.6557 10.912 15.1095 13.2062C15.5392 15.379 14.9767 17.1031 14.6665 17.8784C14.3658 18.6301 14.0076 19.199 13.9167 19.3451L7.12423 15.1187ZM7.00386 14.5169L2.88789 21.3768L2.6622 21.2414L6.77817 14.3815L10.8941 7.52154L11.1198 7.65695L7.00386 14.5169ZM6.77817 14.3815L13.754 18.2977L13.5133 18.7266L6.53744 14.8103L-0.438436 10.894L-0.197702 10.4652L6.77817 14.3815ZM6.53744 14.8103L13.4834 18.7794L13.2427 19.2007L6.2967 15.2316L-0.649244 11.2625L-0.408511 10.8412L6.53744 14.8103ZM6.2967 15.2316L-0.00334072 20.162L-0.138753 19.989L6.16129 15.0585L12.4613 10.1281L12.5968 10.3011L6.2967 15.2316ZM6.16129 15.0585L-0.187564 19.926C-1.03925 18.8151 -1.48516 17.6286 -1.59822 17.3328C-1.78196 16.8521 -2.06897 16.0207 -2.22316 15.0762L5.6723 13.7872L13.5678 12.4981C13.5098 12.1433 13.4408 11.9067 13.4213 11.8408C13.3932 11.7456 13.3684 11.6756 13.3472 11.6201C13.3281 11.5701 13.2859 11.4637 13.2106 11.3093C13.172 11.2302 13.1071 11.1022 13.0142 10.942C12.9311 10.7987 12.7641 10.5224 12.5101 10.1911L6.16129 15.0585ZM5.6723 13.7872L-2.22722 15.0511C-2.45184 13.6473 -2.3797 12.0967 -1.7797 10.4702C-1.40985 9.46759 -0.869118 8.5746 -0.676979 8.24879L6.21395 12.3127L13.1049 16.3765C12.9895 16.5722 12.9598 16.628 12.9654 16.6173C12.9655 16.6172 13.0935 16.3817 13.2315 16.0077C13.3888 15.5814 13.5649 14.9628 13.6298 14.1996C13.6941 13.4435 13.623 12.8432 13.5718 12.5232L5.6723 13.7872ZM6.21395 12.3127L-0.696283 8.28171L-0.274999 7.5595L6.63524 11.5905L13.5455 15.6214L13.1242 16.3436L6.21395 12.3127ZM6.63524 11.5905L13.7907 8.01276L14.1141 8.65974L6.95872 12.2374L-0.196698 15.8151L-0.520184 15.1682L6.63524 11.5905ZM6.95872 12.2374L14.1445 8.72102C14.1182 8.66737 14.0988 8.63054 14.0894 8.61289C14.0842 8.60314 14.0804 8.59616 14.0781 8.59202C14.0758 8.58783 14.0746 8.58571 14.0746 8.58564C14.0745 8.58555 14.0753 8.58696 14.077 8.58984C14.0787 8.5927 14.081 8.59662 14.0839 8.60152C14.0899 8.61156 14.0973 8.62375 14.1057 8.6373C14.1238 8.66653 14.1385 8.68893 14.1453 8.69901C14.1482 8.70327 14.1459 8.69976 14.1382 8.68884C14.131 8.67876 14.113 8.65364 14.0848 8.61625L7.70349 13.4411L1.32221 18.266C0.80756 17.5853 0.191145 16.6084 -0.227014 15.7539L6.95872 12.2374ZM7.70349 13.4411L14.053 8.57446C14.0235 8.53598 14.0917 8.62714 14.306 8.84333C14.5045 9.04362 14.7633 9.28581 15.067 9.54784C15.7019 10.0956 16.337 10.562 16.7766 10.8337L12.5708 17.6389L8.36501 24.4441C6.01463 22.9915 3.05196 20.523 1.35402 18.3078L7.70349 13.4411ZM12.5708 17.6389L16.8372 10.8715L17.5294 11.3078L13.2629 18.0752L8.99652 24.8426L8.30441 24.4063L12.5708 17.6389ZM13.2629 18.0752L6.44212 13.8948L6.58506 13.6615L13.4059 17.842L20.2267 22.0225L20.0838 22.2557L13.2629 18.0752ZM13.4059 17.842L6.68931 13.496C6.34592 14.0267 6.09202 14.5719 5.9095 15.1194C5.81907 15.3908 5.69297 15.821 5.60972 16.3693C5.56791 16.6446 5.51907 17.0647 5.52169 17.5808C5.52398 18.0317 5.56385 18.9522 5.92925 20.0484L13.5187 17.5185L21.1082 14.9887C21.7444 16.8974 21.4673 18.5148 21.4284 18.771C21.3384 19.3642 21.1986 19.8485 21.0884 20.1791C20.8664 20.8451 20.5486 21.5295 20.1224 22.188L13.4059 17.842ZM13.5187 17.5185L6.3633 21.0962C6.76562 21.9009 7.21286 22.4467 7.37221 22.6375C7.58374 22.8907 7.76809 23.0786 7.87405 23.1834C8.08612 23.3931 8.25991 23.5399 8.32737 23.5963C8.47753 23.7218 8.58207 23.7977 8.58844 23.8024C8.62342 23.828 8.59993 23.8099 8.52892 23.7636L12.8943 17.0596L17.2597 10.3557C17.5122 10.5201 17.7896 10.7088 18.0503 10.8999C18.1695 10.9874 18.3681 11.1357 18.5869 11.3186C18.6887 11.4036 18.8904 11.5754 19.1233 11.8056C19.2397 11.9207 19.4326 12.1179 19.6509 12.3791C19.8169 12.5778 20.269 13.1306 20.6741 13.9408L13.5187 17.5185ZM12.8943 17.0596L8.63493 23.8315C5.58389 21.9124 1.98304 18.9201 0.265459 15.2594L7.5079 11.8613L14.7503 8.46319C14.6238 8.19347 14.5419 8.10982 14.6178 8.20756C14.6829 8.29138 14.8242 8.45689 15.0641 8.68854C15.5509 9.15863 16.2651 9.72891 17.1537 10.2878L12.8943 17.0596ZM7.5079 11.8613L0.264714 15.2578C-0.485864 13.6572 -1.81157 9.73638 0.747379 5.87362C3.14848 2.24914 7.00661 1.74962 8.58317 1.67382L8.96734 9.66459L9.35152 17.6554C9.36331 17.6548 12.1795 17.5878 14.086 14.71C16.1503 11.5939 14.8773 8.73385 14.7511 8.46478L7.5079 11.8613ZM8.96734 9.66459L8.58569 1.6737C11.4922 1.53488 14.4126 2.37695 16.654 3.2632C19.0725 4.21944 21.5695 5.57612 23.8151 7.20208L19.1233 13.6818L14.4315 20.1616C13.2693 19.32 11.9484 18.6079 10.7708 18.1423C10.1903 17.9128 9.72684 17.7758 9.40709 17.705C9.05081 17.626 9.0564 17.6695 9.349 17.6555L8.96734 9.66459ZM19.1233 13.6818L23.7911 7.18479L24.566 7.74149L19.8982 14.2385L15.2304 20.7356L14.4555 20.1789L19.1233 13.6818ZM19.8982 14.2385L13.7838 9.07958L13.9869 8.83885L20.1013 13.9978L26.2156 19.1568L26.0125 19.3975L19.8982 14.2385ZM20.1013 13.9978L14.0012 8.822L14.2118 8.57374L20.3119 13.7496L26.412 18.9254L26.2014 19.1736L20.1013 13.9978ZM20.3119 13.7496L15.234 19.9314L15.0234 19.7583L20.1013 13.5765L25.1792 7.39472L25.3898 7.56775L20.3119 13.7496ZM20.1013 13.5765L14.8618 19.622C14.9566 19.7042 15.0318 19.7651 15.0693 19.7952C15.1113 19.8289 15.1435 19.8539 15.161 19.8673C15.1946 19.8931 15.2111 19.9051 15.2013 19.8979C15.1828 19.8843 15.1333 19.8484 15.0476 19.7878C14.8802 19.6694 14.6521 19.5113 14.4117 19.3477L18.9127 12.734L23.4137 6.12025C23.736 6.33959 24.7805 7.04546 25.3407 7.53102L20.1013 13.5765ZM18.9127 12.734L14.4294 19.3597C12.5575 18.093 10.7558 17.3288 9.47071 17.0361L11.2468 9.23578L13.0229 1.43543C16.6277 2.25621 20.2425 3.97449 23.3959 6.10823L18.9127 12.734ZM11.2468 9.23578L9.46419 17.0346C9.46492 17.0348 9.42757 17.0266 9.35931 17.0175C9.29256 17.0085 9.23017 17.0032 9.18547 17.0009C9.13474 16.9984 9.15226 17.002 9.23767 16.9976C9.28324 16.9952 9.3699 16.9894 9.491 16.9742C9.60688 16.9597 9.80157 16.9307 10.0522 16.8715L8.21505 9.08532L6.37786 1.29914C7.79752 0.964159 9.16982 0.979965 9.98862 1.02112C10.9511 1.0695 12.0069 1.2032 13.0294 1.43691L11.2468 9.23578Z" fill="black" mask="url(#path-2-inside-1_674_769)"/>
<mask id="path-4-inside-2_674_769" fill="white">
<path d="M9.11774 10.545C8.97481 10.5826 8.76416 10.703 8.6438 10.8233C8.32784 11.1243 8.33536 11.6358 8.65884 12.2C9.17793 13.1028 10.9007 14.6375 12.7438 15.8487C13.7368 16.4956 14.6697 17.0523 14.6922 17.0147C14.8276 16.8266 14.9706 16.5633 14.9706 16.5032C14.9706 16.4655 14.775 16.3226 14.5418 16.1947C13.6842 15.7133 11.9765 14.5397 11.164 13.8777C9.55407 12.5611 8.73407 11.4703 9.16288 11.2371C9.86251 10.861 12.7438 11.7938 15.3843 13.2382C16.2946 13.7347 17.7164 14.5999 18.0475 14.8556C18.228 14.9911 18.228 14.9911 18.401 14.7353C18.4988 14.5923 18.5816 14.4569 18.5816 14.4419C18.5816 14.3892 17.2801 13.5617 16.4451 13.0802C13.3531 11.2973 10.2988 10.2441 9.11774 10.545Z"/>
</mask>
<path d="M9.11774 10.545C8.97481 10.5826 8.76416 10.703 8.6438 10.8233C8.32784 11.1243 8.33536 11.6358 8.65884 12.2C9.17793 13.1028 10.9007 14.6375 12.7438 15.8487C13.7368 16.4956 14.6697 17.0523 14.6922 17.0147C14.8276 16.8266 14.9706 16.5633 14.9706 16.5032C14.9706 16.4655 14.775 16.3226 14.5418 16.1947C13.6842 15.7133 11.9765 14.5397 11.164 13.8777C9.55407 12.5611 8.73407 11.4703 9.16288 11.2371C9.86251 10.861 12.7438 11.7938 15.3843 13.2382C16.2946 13.7347 17.7164 14.5999 18.0475 14.8556C18.228 14.9911 18.228 14.9911 18.401 14.7353C18.4988 14.5923 18.5816 14.4569 18.5816 14.4419C18.5816 14.3892 17.2801 13.5617 16.4451 13.0802C13.3531 11.2973 10.2988 10.2441 9.11774 10.545Z" fill="black"/>
<path d="M9.11774 10.545L7.08179 2.80839L7.11217 2.8004L7.14262 2.79264L9.11774 10.545ZM8.6438 10.8233L14.3007 16.4802L14.2317 16.5492L14.161 16.6164L8.6438 10.8233ZM8.65884 12.2L1.72358 16.1878L1.71859 16.1791L8.65884 12.2ZM12.7438 15.8487L8.37674 22.5516L8.36353 22.543L8.35036 22.5343L12.7438 15.8487ZM14.6922 17.0147L7.83228 12.8988L8.00443 12.6118L8.19995 12.3403L14.6922 17.0147ZM14.5418 16.1947L10.6951 23.2092L10.6602 23.1901L10.6255 23.1706L14.5418 16.1947ZM11.164 13.8777L6.11058 20.0795L6.09964 20.0706L11.164 13.8777ZM9.16288 11.2371L5.34069 4.20923L5.35762 4.20003L5.37459 4.1909L9.16288 11.2371ZM15.3843 13.2382L11.5535 20.2614L11.5451 20.2568L15.3843 13.2382ZM18.0475 14.8556L13.2474 21.2556L13.2014 21.2211L13.1559 21.1859L18.0475 14.8556ZM18.401 14.7353L11.7748 10.2528L11.7866 10.2353L11.7986 10.2178L18.401 14.7353ZM16.4451 13.0802L12.4491 20.0107L12.4487 20.0105L16.4451 13.0802ZM9.11774 10.545L11.1537 18.2816C12.0078 18.0568 12.6042 17.7375 12.8986 17.5661C13.2166 17.3809 13.7384 17.0424 14.3007 16.4802L8.6438 10.8233L2.98693 5.16649C4.06123 4.09219 5.50533 3.22325 7.08179 2.80839L9.11774 10.545ZM8.6438 10.8233L14.161 16.6164C15.8316 15.0254 16.4309 12.9822 16.411 11.3173C16.393 9.81425 15.9005 8.74667 15.5991 8.22097L8.65884 12.2L1.71859 16.1791C0.718953 14.4355 -1.23507 9.18418 3.12655 5.03024L8.6438 10.8233ZM8.65884 12.2L15.5941 8.21228C15.4373 7.93961 15.306 7.76309 15.2529 7.69396C15.1933 7.61642 15.1632 7.58471 15.1775 7.60048C15.2106 7.63689 15.3233 7.75407 15.5317 7.9401C15.952 8.31521 16.5297 8.76377 17.1372 9.16303L12.7438 15.8487L8.35036 22.5343C7.11481 21.7224 5.90952 20.798 4.8779 19.8773C4.03863 19.1282 2.65768 17.8123 1.72359 16.1878L8.65884 12.2ZM12.7438 15.8487L17.1108 9.14577C17.5379 9.424 17.931 9.6689 18.1874 9.82216C18.3303 9.90764 18.3578 9.92089 18.3033 9.89161C18.283 9.88073 18.2384 9.85698 18.1757 9.82552C18.1218 9.7985 17.9999 9.73822 17.8354 9.66661C17.7499 9.6294 17.3041 9.43241 16.697 9.27402C16.4541 9.21066 15.648 9.00417 14.5896 9.01712C14.0474 9.02376 13.0392 9.08872 11.867 9.5309C10.6066 10.0063 8.969 11.0042 7.83228 12.8988L14.6922 17.0147L21.5522 21.1307C19.2635 24.9451 15.3281 25.0093 14.7854 25.0159C13.722 25.0289 12.9093 24.8214 12.6581 24.7559C12.0343 24.5931 11.5653 24.3874 11.4501 24.3373C11.1107 24.1896 10.8354 24.0424 10.7325 23.9871C10.4657 23.8438 10.1937 23.6845 9.97651 23.5547C9.51251 23.2772 8.94271 22.9203 8.37674 22.5516L12.7438 15.8487ZM14.6922 17.0147L8.19995 12.3403C8.04803 12.5513 7.94161 12.7282 7.8538 12.8897C7.8112 12.9681 7.71099 13.1562 7.59668 13.422C7.54199 13.5492 7.43578 13.8053 7.32968 14.1442C7.2756 14.3169 7.19893 14.5825 7.13118 14.9138C7.07045 15.2107 6.97058 15.7791 6.97058 16.5032H14.9706H22.9706C22.9706 17.7727 22.6575 18.7372 22.5987 18.9252C22.4842 19.2907 22.3658 19.5788 22.2956 19.742C22.1502 20.0801 22.0058 20.357 21.9106 20.5322C21.7174 20.8874 21.4718 21.2901 21.1845 21.6892L14.6922 17.0147ZM14.9706 16.5032H6.97058C6.97058 18.1374 7.47058 19.3542 7.7385 19.9198C8.03861 20.5533 8.36121 21.0163 8.55589 21.2766C8.94217 21.7929 9.30409 22.1421 9.45344 22.2827C9.78748 22.5971 10.0649 22.7997 10.1568 22.8662C10.3888 23.0338 10.5692 23.1402 10.6951 23.2092L14.5418 16.1947L18.3884 9.18023C18.7475 9.37714 19.1424 9.61891 19.5304 9.89943C19.7004 10.0223 20.0413 10.2757 20.4193 10.6315C20.5906 10.7927 20.9697 11.1603 21.3675 11.6921C21.568 11.9601 21.8951 12.4302 22.1981 13.07C22.4691 13.6419 22.9706 14.8642 22.9706 16.5032H14.9706ZM14.5418 16.1947L10.6255 23.1706C9.33172 22.4443 7.24606 21.0047 6.11058 20.0795L11.164 13.8777L16.2174 7.67578C16.3765 7.80547 16.8015 8.12262 17.3632 8.50815C17.6225 8.68614 17.8712 8.85138 18.0838 8.98763C18.1893 9.05528 18.2777 9.11049 18.3476 9.15312C18.3821 9.17414 18.4092 9.19034 18.4292 9.20212C18.4496 9.2141 18.4589 9.21932 18.4581 9.21886L14.5418 16.1947ZM11.164 13.8777L6.09964 20.0706C5.06768 19.2267 3.91566 18.1638 3.01748 16.9758C2.65569 16.4973 1.78876 15.304 1.34119 13.6348C1.10522 12.7547 0.81533 11.1185 1.36155 9.18679C1.98827 6.97034 3.47726 5.22268 5.34069 4.20923L9.16288 11.2371L12.9851 18.265C14.7413 17.3098 16.1621 15.6473 16.7579 13.5403C17.2732 11.7179 16.9896 10.2156 16.7953 9.49111C16.4312 8.13311 15.7895 7.33858 15.7803 7.32648C15.5874 7.07132 15.6504 7.21209 16.2283 7.68471L11.164 13.8777ZM9.16288 11.2371L5.37459 4.1909C6.94628 3.34591 8.41189 3.20198 9.11668 3.16616C9.93395 3.12462 10.6494 3.19293 11.1635 3.2646C12.1963 3.40859 13.1847 3.67792 14 3.94068C15.6698 4.47891 17.5127 5.28379 19.2236 6.21963L15.3843 13.2382L11.5451 20.2568C10.6154 19.7482 9.69737 19.3645 9.09158 19.1692C8.76897 19.0652 8.74089 19.0816 8.95417 19.1113C9.05847 19.1259 9.4134 19.1717 9.92887 19.1455C10.1971 19.1319 10.5918 19.0949 11.0673 18.9883C11.5341 18.8838 12.2052 18.6844 12.9512 18.2833L9.16288 11.2371ZM15.3843 13.2382L19.2152 6.21504C20.1287 6.71334 22.0543 7.84172 22.939 8.52536L18.0475 14.8556L13.1559 21.1859C13.2437 21.2538 13.3087 21.3004 13.3346 21.3188C13.3647 21.3402 13.3819 21.3519 13.382 21.352C13.3832 21.3528 13.3761 21.348 13.3593 21.3369C13.3428 21.3261 13.3205 21.3115 13.2918 21.2931C13.1706 21.2151 12.994 21.1047 12.7783 20.9737C12.3357 20.7047 11.8657 20.4317 11.5535 20.2614L15.3843 13.2382ZM18.0475 14.8556L22.8475 8.45564C23.1086 8.65148 22.57 8.21963 21.9315 7.87765C21.0813 7.42231 18.6542 6.34589 15.6489 7.36895C13.3315 8.15788 12.1278 9.78804 12.0576 9.87555C11.8317 10.1571 11.6504 10.4366 11.7748 10.2528L18.401 14.7353L25.0273 19.2177C25.0157 19.2349 24.9604 19.317 24.9023 19.4002C24.8477 19.4783 24.7157 19.6659 24.5388 19.8865C24.4143 20.0417 23.1668 21.7114 20.8052 22.5153C17.7557 23.5535 15.284 22.4676 14.3776 21.9822C13.9343 21.7448 13.6072 21.5157 13.4879 21.4313C13.4132 21.3785 13.3526 21.3339 13.3182 21.3084C13.2851 21.2839 13.2542 21.2607 13.2474 21.2556L18.0475 14.8556ZM18.401 14.7353L11.7986 10.2178C11.7849 10.2378 11.7567 10.2794 11.7106 10.3545C11.6944 10.381 11.6273 10.4902 11.5421 10.6466C11.5068 10.7114 11.4045 10.9004 11.2895 11.1544C11.2352 11.2744 11.1215 11.5323 11.0063 11.8713C10.9478 12.0433 10.8598 12.3209 10.7804 12.6701C10.7121 12.9707 10.5816 13.6138 10.5816 14.4419H18.5816H26.5816C26.5816 15.8472 26.1923 16.911 26.1549 17.0209C26.0385 17.3636 25.9229 17.626 25.8662 17.7514C25.7463 18.0163 25.6368 18.2195 25.5921 18.3014C25.4884 18.4918 25.3945 18.6467 25.3454 18.7267C25.2334 18.909 25.1149 19.0898 25.0035 19.2527L18.401 14.7353ZM18.5816 14.4419H10.5816C10.5816 16.3255 11.2473 17.6812 11.4983 18.1592C11.8159 18.7638 12.144 19.1975 12.3193 19.4177C12.675 19.8645 12.999 20.1698 13.1133 20.2764C13.3814 20.5262 13.6025 20.6953 13.6486 20.7307C13.7868 20.8369 13.8754 20.8961 13.8444 20.8748C13.8156 20.855 13.7117 20.7859 13.5295 20.6699C13.1712 20.4417 12.7401 20.1785 12.4491 20.0107L16.4451 13.0802L20.4411 6.1497C20.9851 6.46338 21.6223 6.85469 22.1234 7.17378C22.371 7.33146 22.6447 7.50915 22.886 7.67441C22.99 7.74566 23.1868 7.88183 23.3994 8.04524C23.4828 8.10933 23.7327 8.30209 24.0202 8.57003C24.1443 8.68561 24.4757 8.99869 24.8364 9.45169C25.0142 9.67498 25.3441 10.1115 25.6629 10.7185C25.9153 11.1989 26.5816 12.5566 26.5816 14.4419H18.5816ZM16.4451 13.0802L12.4487 20.0105C11.2626 19.3265 10.189 18.8472 9.45134 18.5922C9.07621 18.4625 8.93318 18.4415 8.9983 18.4525C9.03665 18.4589 9.21727 18.4882 9.50739 18.4932C9.77072 18.4977 10.3468 18.4874 11.0929 18.2973L9.11774 10.545L7.14262 2.79264C9.0498 2.30673 10.771 2.5258 11.6539 2.6744C12.7205 2.85392 13.7558 3.15121 14.6784 3.4701C16.5361 4.11223 18.5356 5.05095 20.4414 6.1499L16.4451 13.0802Z" fill="black" mask="url(#path-4-inside-2_674_769)"/>
<mask id="path-6-inside-3_674_769" fill="white">
<path d="M21.5679 10.6049C21.5378 10.6275 21.5152 10.8156 21.5152 11.0112V11.3723L21.124 11.3948L20.7253 11.4174L20.7027 11.7334L20.6802 12.0569H21.0939H21.5152V12.4706V12.8844H21.8538H22.1923V12.4706V12.0569H22.606H23.0198V11.7183V11.3798H22.606H22.1923V10.966V10.5523H21.9064C21.7484 10.5523 21.5905 10.5748 21.5679 10.6049Z"/>
</mask>
<path d="M21.5679 10.6049C21.5378 10.6275 21.5152 10.8156 21.5152 11.0112V11.3723L21.124 11.3948L20.7253 11.4174L20.7027 11.7334L20.6802 12.0569H21.0939H21.5152V12.4706V12.8844H21.8538H22.1923V12.4706V12.0569H22.606H23.0198V11.7183V11.3798H22.606H22.1923V10.966V10.5523H21.9064C21.7484 10.5523 21.5905 10.5748 21.5679 10.6049Z" fill="black"/>
<path d="M21.5679 10.6049L27.9679 15.4049L27.2822 16.3192L26.3679 17.0049L21.5679 10.6049ZM21.5152 11.3723H29.5152V18.924L21.976 19.359L21.5152 11.3723ZM21.124 11.3948L21.5848 19.3816L21.5761 19.3821L21.124 11.3948ZM20.7253 11.4174L12.7456 10.8474L13.247 3.82791L20.2732 3.4302L20.7253 11.4174ZM20.7027 11.7334L12.7221 11.1766L12.7231 11.1634L20.7027 11.7334ZM20.6802 12.0569V20.0569H12.1026L12.6996 11.5001L20.6802 12.0569ZM21.5152 12.0569V4.05687H29.5152V12.0569H21.5152ZM21.5152 12.8844V20.8844H13.5152V12.8844H21.5152ZM22.1923 12.8844H30.1923V20.8844H22.1923V12.8844ZM22.1923 12.0569H14.1923V4.05687H22.1923V12.0569ZM23.0198 12.0569H31.0198V20.0569H23.0198V12.0569ZM23.0198 11.3798V3.3798H31.0198V11.3798H23.0198ZM22.1923 11.3798V19.3798H14.1923V11.3798H22.1923ZM22.1923 10.5523V2.55228H30.1923V10.5523H22.1923ZM21.5679 10.6049L26.3679 17.0049C27.291 16.3126 27.8634 15.5702 28.1707 15.1199C28.4972 14.6414 28.7101 14.2166 28.8385 13.9344C29.0889 13.3842 29.2196 12.9268 29.2781 12.707C29.4012 12.2441 29.4498 11.8831 29.4669 11.7478C29.5076 11.4267 29.5152 11.1801 29.5152 11.0112H21.5152H13.5152C13.5152 10.6467 13.5341 10.2083 13.5936 9.73853C13.6201 9.52893 13.68 9.10443 13.8158 8.59387C13.8806 8.35023 14.0181 7.87286 14.2755 7.30729C14.4222 6.98486 15.1072 5.45043 16.7679 4.20494L21.5679 10.6049ZM21.5152 11.0112H29.5152V11.3723H21.5152H13.5152V11.0112H21.5152ZM21.5152 11.3723L21.976 19.359L21.5848 19.3816L21.124 11.3948L20.6633 3.40813L21.0544 3.38556L21.5152 11.3723ZM21.124 11.3948L21.5761 19.3821L21.1774 19.4046L20.7253 11.4174L20.2732 3.4302L20.6719 3.40763L21.124 11.3948ZM20.7253 11.4174L28.705 11.9874L28.6824 12.3034L20.7027 11.7334L12.7231 11.1634L12.7456 10.8474L20.7253 11.4174ZM20.7027 11.7334L28.6833 12.2902L28.6608 12.6137L20.6802 12.0569L12.6996 11.5001L12.7221 11.1766L20.7027 11.7334ZM20.6802 12.0569V4.05687H21.0939V12.0569V20.0569H20.6802V12.0569ZM21.0939 12.0569V4.05687H21.5152V12.0569V20.0569H21.0939V12.0569ZM21.5152 12.0569H29.5152V12.4706H21.5152H13.5152V12.0569H21.5152ZM21.5152 12.4706H29.5152V12.8844H21.5152H13.5152V12.4706H21.5152ZM21.5152 12.8844V4.88439H21.8538V12.8844V20.8844H21.5152V12.8844ZM21.8538 12.8844V4.88439H22.1923V12.8844V20.8844H21.8538V12.8844ZM22.1923 12.8844H14.1923V12.4706H22.1923H30.1923V12.8844H22.1923ZM22.1923 12.4706H14.1923V12.0569H22.1923H30.1923V12.4706H22.1923ZM22.1923 12.0569V4.05687H22.606V12.0569V20.0569H22.1923V12.0569ZM22.606 12.0569V4.05687H23.0198V12.0569V20.0569H22.606V12.0569ZM23.0198 12.0569H15.0198V11.7183H23.0198H31.0198V12.0569H23.0198ZM23.0198 11.7183H15.0198V11.3798H23.0198H31.0198V11.7183H23.0198ZM23.0198 11.3798V19.3798H22.606V11.3798V3.3798H23.0198V11.3798ZM22.606 11.3798V19.3798H22.1923V11.3798V3.3798H22.606V11.3798ZM22.1923 11.3798H14.1923V10.966H22.1923H30.1923V11.3798H22.1923ZM22.1923 10.966H14.1923V10.5523H22.1923H30.1923V10.966H22.1923ZM22.1923 10.5523V18.5523H21.9064V10.5523V2.55228H22.1923V10.5523ZM21.9064 10.5523V18.5523C22.1606 18.5523 22.4882 18.5371 22.8848 18.477C23.0607 18.4504 23.4681 18.3832 23.9793 18.2245C24.2293 18.1469 24.6957 17.9894 25.2461 17.7058C25.6527 17.4963 26.9019 16.8262 27.9679 15.4049L21.5679 10.6049L15.1679 5.80494C16.2395 4.37613 17.4985 3.69872 17.9188 3.48224C18.4828 3.19169 18.9665 3.02743 19.2369 2.9435C19.7889 2.77218 20.2499 2.69366 20.4879 2.6576C21.0087 2.5787 21.4943 2.55228 21.9064 2.55228V10.5523Z" fill="black" mask="url(#path-6-inside-3_674_769)"/>
<mask id="path-8-inside-4_674_769" fill="white">
<path d="M23.8103 13.4186C19.6049 13.9904 13.6393 17.3983 11.0062 20.7234C10.1486 21.8067 9.78 22.6418 9.78 23.4843C9.78 24.041 9.75743 23.9809 10.9837 26.1174C11.6156 27.2082 11.7435 27.3812 12.082 27.6069C14.1508 28.9836 19.966 27.1254 24.7506 23.5445C25.8866 22.6944 27.4514 21.1823 28.0081 20.3924C28.7604 19.3317 29.1215 18.2785 28.9635 17.6014C28.9259 17.4058 28.4895 16.5707 27.9704 15.6605C26.9549 13.9151 26.827 13.7647 25.9919 13.5164C25.5029 13.3735 24.4798 13.3284 23.8103 13.4186ZM26.0822 14.2462C26.6013 14.5095 26.8044 14.8405 26.7593 15.3671C26.5862 17.2779 23.2912 20.3999 19.146 22.5816C15.7983 24.3495 12.3604 25.1168 10.9912 24.4097C10.3367 24.0636 10.2314 23.4016 10.6903 22.4386C12.2024 19.2715 18.4615 15.1339 23.1332 14.2161C24.0585 14.028 24.1338 14.0205 24.9538 14.0506C25.5857 14.0656 25.7963 14.1032 26.0822 14.2462ZM27.9328 16.9093C28.2864 17.5262 28.324 17.6315 28.324 18.0377C28.3165 18.3687 28.2563 18.617 28.1059 18.9555C27.7974 19.6401 27.7372 19.6627 27.4815 19.2113C27.3686 19.0007 27.2407 18.8276 27.2106 18.8276C27.0978 18.8276 26.7066 19.0533 26.7066 19.121C26.7066 19.1586 26.842 19.4144 27.0075 19.6928L27.3009 20.2043L27.1504 20.415C26.9398 20.7084 25.7587 21.912 25.676 21.912C25.6459 21.912 25.4954 21.7164 25.36 21.4757C25.2171 21.2425 25.0967 21.0319 25.0816 21.0168C25.0666 21.0018 24.9387 21.0695 24.7882 21.1597L24.5249 21.3253L24.8259 21.8744L25.1268 22.4236L24.6604 22.7922C24.1939 23.1533 23.5169 23.6423 23.3438 23.7476C23.2912 23.7777 23.1708 23.6423 23.0279 23.4016C22.6517 22.7546 22.6969 22.7847 22.3884 22.9653L22.1176 23.1308L22.3508 23.5596C22.4862 23.7928 22.6216 24.0185 22.6593 24.0636C22.7044 24.1238 22.569 24.2517 22.253 24.4473C21.7189 24.7858 20.7936 25.2974 20.7334 25.2974C20.7108 25.2974 20.5754 25.0867 20.4174 24.8234C20.267 24.5676 20.1391 24.3495 20.124 24.3344C20.0864 24.2968 19.6501 24.53 19.6049 24.6128C19.5749 24.6504 19.6802 24.8911 19.8382 25.1469C20.0638 25.5306 20.0939 25.6209 20.0037 25.681C19.8231 25.7939 18.1229 26.501 18.0327 26.501C17.98 26.501 17.8145 26.2754 17.6565 26.0121C17.4985 25.7412 17.3405 25.5231 17.2954 25.5231C17.2578 25.5231 17.1299 25.5832 17.0171 25.6509C16.9042 25.7187 16.8064 25.7864 16.7914 25.7939C16.7838 25.8014 16.8967 26.0121 17.0471 26.2678C17.1976 26.5236 17.3029 26.7493 17.2804 26.7719C17.2202 26.8396 15.7382 27.2232 15.3319 27.2834L14.9859 27.3361L14.6624 26.7719L14.3464 26.2076L14.0605 26.3732L13.7747 26.5387L14.0004 26.9223C14.1207 27.133 14.2185 27.3286 14.2185 27.3587C14.2185 27.4489 13.3383 27.4038 12.9472 27.2834C12.7365 27.2232 12.4582 27.0803 12.3378 26.9675C12.1272 26.7719 11.2394 25.3124 11.2996 25.2598C11.3147 25.2447 11.5629 25.2598 11.8488 25.3049C12.7892 25.4328 14.2336 25.2071 15.9413 24.6579C20.7334 23.1082 25.9769 19.2414 27.1655 16.3827C27.3686 15.8862 27.3235 15.8561 27.9328 16.9093Z"/>
</mask>
<path d="M23.8103 13.4186C19.6049 13.9904 13.6393 17.3983 11.0062 20.7234C10.1486 21.8067 9.78 22.6418 9.78 23.4843C9.78 24.041 9.75743 23.9809 10.9837 26.1174C11.6156 27.2082 11.7435 27.3812 12.082 27.6069C14.1508 28.9836 19.966 27.1254 24.7506 23.5445C25.8866 22.6944 27.4514 21.1823 28.0081 20.3924C28.7604 19.3317 29.1215 18.2785 28.9635 17.6014C28.9259 17.4058 28.4895 16.5707 27.9704 15.6605C26.9549 13.9151 26.827 13.7647 25.9919 13.5164C25.5029 13.3735 24.4798 13.3284 23.8103 13.4186ZM26.0822 14.2462C26.6013 14.5095 26.8044 14.8405 26.7593 15.3671C26.5862 17.2779 23.2912 20.3999 19.146 22.5816C15.7983 24.3495 12.3604 25.1168 10.9912 24.4097C10.3367 24.0636 10.2314 23.4016 10.6903 22.4386C12.2024 19.2715 18.4615 15.1339 23.1332 14.2161C24.0585 14.028 24.1338 14.0205 24.9538 14.0506C25.5857 14.0656 25.7963 14.1032 26.0822 14.2462ZM27.9328 16.9093C28.2864 17.5262 28.324 17.6315 28.324 18.0377C28.3165 18.3687 28.2563 18.617 28.1059 18.9555C27.7974 19.6401 27.7372 19.6627 27.4815 19.2113C27.3686 19.0007 27.2407 18.8276 27.2106 18.8276C27.0978 18.8276 26.7066 19.0533 26.7066 19.121C26.7066 19.1586 26.842 19.4144 27.0075 19.6928L27.3009 20.2043L27.1504 20.415C26.9398 20.7084 25.7587 21.912 25.676 21.912C25.6459 21.912 25.4954 21.7164 25.36 21.4757C25.2171 21.2425 25.0967 21.0319 25.0816 21.0168C25.0666 21.0018 24.9387 21.0695 24.7882 21.1597L24.5249 21.3253L24.8259 21.8744L25.1268 22.4236L24.6604 22.7922C24.1939 23.1533 23.5169 23.6423 23.3438 23.7476C23.2912 23.7777 23.1708 23.6423 23.0279 23.4016C22.6517 22.7546 22.6969 22.7847 22.3884 22.9653L22.1176 23.1308L22.3508 23.5596C22.4862 23.7928 22.6216 24.0185 22.6593 24.0636C22.7044 24.1238 22.569 24.2517 22.253 24.4473C21.7189 24.7858 20.7936 25.2974 20.7334 25.2974C20.7108 25.2974 20.5754 25.0867 20.4174 24.8234C20.267 24.5676 20.1391 24.3495 20.124 24.3344C20.0864 24.2968 19.6501 24.53 19.6049 24.6128C19.5749 24.6504 19.6802 24.8911 19.8382 25.1469C20.0638 25.5306 20.0939 25.6209 20.0037 25.681C19.8231 25.7939 18.1229 26.501 18.0327 26.501C17.98 26.501 17.8145 26.2754 17.6565 26.0121C17.4985 25.7412 17.3405 25.5231 17.2954 25.5231C17.2578 25.5231 17.1299 25.5832 17.0171 25.6509C16.9042 25.7187 16.8064 25.7864 16.7914 25.7939C16.7838 25.8014 16.8967 26.0121 17.0471 26.2678C17.1976 26.5236 17.3029 26.7493 17.2804 26.7719C17.2202 26.8396 15.7382 27.2232 15.3319 27.2834L14.9859 27.3361L14.6624 26.7719L14.3464 26.2076L14.0605 26.3732L13.7747 26.5387L14.0004 26.9223C14.1207 27.133 14.2185 27.3286 14.2185 27.3587C14.2185 27.4489 13.3383 27.4038 12.9472 27.2834C12.7365 27.2232 12.4582 27.0803 12.3378 26.9675C12.1272 26.7719 11.2394 25.3124 11.2996 25.2598C11.3147 25.2447 11.5629 25.2598 11.8488 25.3049C12.7892 25.4328 14.2336 25.2071 15.9413 24.6579C20.7334 23.1082 25.9769 19.2414 27.1655 16.3827C27.3686 15.8862 27.3235 15.8561 27.9328 16.9093Z" fill="black"/>
<path d="M23.8103 13.4186L22.7325 5.49155L22.7413 5.49037L23.8103 13.4186ZM11.0062 20.7234L4.73386 15.7578L4.73444 15.7571L11.0062 20.7234ZM10.9837 26.1174L4.06134 30.1275L4.05327 30.1136L4.04525 30.0996L10.9837 26.1174ZM12.082 27.6069L7.64999 34.267L7.6444 34.2633L12.082 27.6069ZM24.7506 23.5445L19.9571 17.1397L19.9574 17.1394L24.7506 23.5445ZM28.0081 20.3924L21.4689 15.7838L21.4757 15.7741L21.4826 15.7644L28.0081 20.3924ZM28.9635 17.6014L21.1727 19.4192L21.1371 19.2663L21.1074 19.1122L28.9635 17.6014ZM27.9704 15.6605L34.885 11.6369L34.9026 11.6672L34.9199 11.6976L27.9704 15.6605ZM25.9919 13.5164L28.2365 5.83776L28.2541 5.84291L28.2717 5.84814L25.9919 13.5164ZM26.0822 14.2462L29.6599 7.09074L29.6806 7.10108L29.7012 7.11154L26.0822 14.2462ZM26.7593 15.3671L34.73 16.0503L34.7284 16.0694L34.7267 16.0885L26.7593 15.3671ZM19.146 22.5816L15.4102 15.5074L15.4201 15.5022L19.146 22.5816ZM10.9912 24.4097L7.32005 31.5176L7.28585 31.4999L7.25182 31.4819L10.9912 24.4097ZM10.6903 22.4386L3.46843 18.997L3.47087 18.9919L10.6903 22.4386ZM23.1332 14.2161L24.7266 22.0558L24.701 22.061L24.6754 22.066L23.1332 14.2161ZM24.9538 14.0506L24.7633 22.0483L24.7118 22.0471L24.6604 22.0452L24.9538 14.0506ZM27.9328 16.9093L34.8574 12.9029L34.8655 12.917L34.8736 12.9311L27.9328 16.9093ZM28.324 18.0377H36.324V18.1286L36.322 18.2195L28.324 18.0377ZM28.1059 18.9555L35.4164 22.2046L35.4081 22.2232L35.3997 22.2418L28.1059 18.9555ZM27.4815 19.2113L20.5213 23.1554L20.4745 23.0728L20.4296 22.9891L27.4815 19.2113ZM27.0075 19.6928L33.8838 15.6042L33.9159 15.6582L33.9472 15.7127L27.0075 19.6928ZM27.3009 20.2043L34.2406 16.2242L36.7944 20.6771L33.8108 24.8542L27.3009 20.2043ZM27.1504 20.415L33.6603 25.0649L33.6547 25.0728L33.649 25.0806L27.1504 20.415ZM25.36 21.4757L32.1808 17.2952L32.2591 17.423L32.3326 17.5536L25.36 21.4757ZM24.7882 21.1597L20.5309 14.3867L20.6011 14.3425L20.6723 14.2998L24.7882 21.1597ZM24.5249 21.3253L17.5091 25.1695L13.8885 18.5619L20.2676 14.5522L24.5249 21.3253ZM25.1268 22.4236L32.1426 18.5793L35.3913 24.5082L30.0872 28.7001L25.1268 22.4236ZM24.6604 22.7922L29.6208 29.0687L29.5894 29.0935L29.5578 29.118L24.6604 22.7922ZM23.3438 23.7476L27.5034 30.5812L27.409 30.6387L27.313 30.6936L23.3438 23.7476ZM23.0279 23.4016L16.149 27.4859L16.1303 27.4543L16.1118 27.4225L23.0279 23.4016ZM22.3884 22.9653L18.2168 16.139L18.2815 16.0995L18.347 16.0611L22.3884 22.9653ZM22.1176 23.1308L15.0897 26.9529L11.4556 20.2709L17.946 16.3045L22.1176 23.1308ZM22.3508 23.5596L15.4325 27.5766L15.3764 27.48L15.3229 27.3817L22.3508 23.5596ZM22.6593 24.0636L28.805 18.9421L28.9363 19.0996L29.0593 19.2636L22.6593 24.0636ZM22.253 24.4473L17.9703 17.6902L18.0061 17.6675L18.0422 17.6452L22.253 24.4473ZM20.4174 24.8234L13.5575 28.9394L13.5396 28.9096L13.5219 28.8796L20.4174 24.8234ZM19.6049 24.6128L26.6281 28.4436L26.2913 29.0611L25.8519 29.6103L19.6049 24.6128ZM19.8382 25.1469L26.6445 20.943L26.6899 21.0164L26.7336 21.0908L19.8382 25.1469ZM20.0037 25.681L24.4413 32.3374L24.3434 32.4027L24.2437 32.465L20.0037 25.681ZM17.6565 26.0121L10.7966 30.128L10.7712 30.0857L10.7463 30.043L17.6565 26.0121ZM16.7914 25.7939L11.1345 20.137L12.0525 19.2191L13.2137 18.6385L16.7914 25.7939ZM17.2804 26.7719L11.3011 21.457L11.4573 21.2813L11.6235 21.115L17.2804 26.7719ZM15.3319 27.2834L14.1284 19.3745L14.144 19.3721L14.1595 19.3698L15.3319 27.2834ZM14.9859 27.3361L16.1894 35.245L10.7714 36.0695L8.04562 31.3152L14.9859 27.3361ZM14.6624 26.7719L7.72213 30.7509L7.70205 30.7159L7.68233 30.6807L14.6624 26.7719ZM14.3464 26.2076L10.3381 19.2842L17.3613 15.2182L21.3265 22.2988L14.3464 26.2076ZM13.7747 26.5387L6.8792 30.5948L2.79485 23.6514L9.76638 19.6153L13.7747 26.5387ZM14.0004 26.9223L20.8958 22.8662L20.9213 22.9095L20.9463 22.9532L14.0004 26.9223ZM12.9472 27.2834L15.1449 19.5912L15.2226 19.6134L15.2998 19.6372L12.9472 27.2834ZM12.3378 26.9675L17.7814 21.1051L17.7954 21.1181L17.8093 21.1312L12.3378 26.9675ZM11.2996 25.2598L16.9565 30.9166L16.7681 31.105L16.5677 31.2804L11.2996 25.2598ZM11.8488 25.3049L10.7707 33.2319L10.6858 33.2204L10.6011 33.207L11.8488 25.3049ZM15.9413 24.6579L18.4029 32.2698L18.3904 32.2738L15.9413 24.6579ZM27.1655 16.3827L34.5699 19.4117L34.5612 19.4329L34.5524 19.4541L27.1655 16.3827ZM23.8103 13.4186L24.888 21.3457C24.1491 21.4462 22.6051 21.9472 20.7842 22.9865C18.9639 24.0254 17.7437 25.1017 17.278 25.6898L11.0062 20.7234L4.73444 15.7571C6.90178 13.02 9.9809 10.7298 12.8531 9.0905C15.7246 7.45163 19.2661 5.96284 22.7325 5.49156L23.8103 13.4186ZM11.0062 20.7234L17.2786 25.689C17.0984 25.9166 17.2188 25.8112 17.3845 25.4376C17.5834 24.9892 17.78 24.3079 17.78 23.4843H9.78H1.78C1.78 20.0178 3.4047 17.4367 4.73386 15.7578L11.0062 20.7234ZM9.78 23.4843H17.78C17.78 23.498 17.78 23.5371 17.78 23.5374C17.78 23.5495 17.78 23.5506 17.78 23.5472C17.7799 23.5428 17.7798 23.4905 17.7774 23.4149C17.7721 23.2512 17.7559 22.9444 17.6942 22.5604C17.6306 22.1648 17.5379 21.8043 17.4333 21.4881C17.3359 21.1933 17.2415 20.9776 17.1925 20.8708C17.1446 20.7665 17.1164 20.7154 17.134 20.7486C17.1498 20.7784 17.1853 20.844 17.2548 20.9677C17.4006 21.2276 17.6009 21.5755 17.9221 22.1351L10.9837 26.1174L4.04525 30.0996C3.75332 29.591 3.49662 29.1453 3.30177 28.7981C3.12639 28.4855 2.87289 28.0283 2.65148 27.546C2.39485 26.987 2.06683 26.1561 1.89704 25.0999C1.81827 24.6099 1.79425 24.1998 1.78548 23.9244C1.78129 23.7931 1.78041 23.6829 1.78012 23.6172C1.77988 23.5634 1.78 23.4886 1.78 23.4843H9.78ZM10.9837 26.1174L17.906 22.1072C18.0594 22.372 18.1439 22.5146 18.1947 22.5974C18.2511 22.6895 18.2008 22.6003 18.0811 22.438C17.938 22.244 17.6869 21.9319 17.3224 21.5908C16.9584 21.2503 16.642 21.0321 16.5196 20.9505L12.082 27.6069L7.6444 34.2633C5.48308 32.8224 4.49396 30.8743 4.06134 30.1275L10.9837 26.1174ZM12.082 27.6069L16.514 20.9468C15.7152 20.4152 15.0025 20.2125 14.6071 20.1327C14.2078 20.0521 13.9639 20.062 13.9406 20.063C13.9202 20.0638 14.2532 20.0417 14.9576 19.8161C16.35 19.3701 18.2135 18.4446 19.9571 17.1397L24.7506 23.5445L29.5442 29.9493C26.5032 32.2253 23.0667 34.0194 19.8383 35.0535C18.2321 35.568 16.4244 35.9762 14.5822 36.0501C12.9138 36.1171 10.1852 35.9541 7.65 34.267L12.082 27.6069ZM24.7506 23.5445L19.9574 17.1394C20.1808 16.9722 20.5961 16.6199 21.0347 16.1956C21.24 15.997 21.4035 15.8279 21.5133 15.7075C21.6539 15.5534 21.6053 15.5902 21.4689 15.7838L28.0081 20.3924L34.5473 25.001C33.333 26.724 31.0592 28.8156 29.5439 29.9496L24.7506 23.5445ZM28.0081 20.3924L21.4826 15.7644C21.5102 15.7256 21.3905 15.8762 21.2586 16.2611C21.19 16.4614 21.0888 16.8113 21.0356 17.2905C20.9837 17.7573 20.9598 18.5067 21.1727 19.4192L28.9635 17.6014L36.7542 15.7836C37.3103 18.1666 36.807 20.2436 36.3956 21.445C35.9347 22.7909 35.2583 23.9985 34.5335 25.0204L28.0081 20.3924ZM28.9635 17.6014L21.1074 19.1122C21.1478 19.3223 21.1906 19.498 21.2253 19.6289C21.2606 19.7622 21.2945 19.8755 21.3224 19.9641C21.3768 20.1365 21.4264 20.2711 21.4576 20.3528C21.5184 20.512 21.5661 20.6177 21.5769 20.6417C21.5924 20.6758 21.5974 20.6853 21.5869 20.6639C21.5775 20.6448 21.5606 20.611 21.535 20.5612C21.4245 20.3466 21.2445 20.0153 21.021 19.6234L27.9704 15.6605L34.9199 11.6976C35.2155 12.2159 35.5132 12.7573 35.76 13.2367C35.8798 13.4693 36.0217 13.7531 36.154 14.0456C36.2191 14.1895 36.3111 14.3996 36.405 14.6455C36.4628 14.797 36.6789 15.3595 36.8195 16.0906L28.9635 17.6014ZM27.9704 15.6605L21.0559 19.684C20.7926 19.2316 20.6718 19.0302 20.6036 18.9232C20.5236 18.7976 20.6807 19.0673 21.0202 19.4372C21.4591 19.9152 22.055 20.407 22.7914 20.7937C23.3789 21.1022 23.8488 21.2253 23.7121 21.1847L25.9919 13.5164L28.2717 5.84814C29.1725 6.11596 31.0804 6.73647 32.8067 8.61689C33.7961 9.69468 34.5652 11.0873 34.885 11.6369L27.9704 15.6605ZM25.9919 13.5164L23.7474 21.1951C23.9795 21.2629 24.1599 21.3014 24.2639 21.3215C24.3741 21.3429 24.4552 21.3545 24.5008 21.3605C24.5872 21.3718 24.6232 21.3726 24.6123 21.3721C24.6054 21.3718 24.6026 21.3722 24.6168 21.3718C24.6211 21.3716 24.7131 21.3693 24.8792 21.3469L23.8103 13.4186L22.7413 5.49037C23.6784 5.36403 24.6005 5.3557 25.3253 5.38802C25.9444 5.41563 27.0738 5.49789 28.2365 5.83776L25.9919 13.5164ZM26.0822 14.2462L29.7012 7.11154C30.7345 7.63567 32.3188 8.65598 33.4734 10.5607C34.6881 12.5644 34.8551 14.5907 34.73 16.0503L26.7593 15.3671L18.7885 14.6839C18.7085 15.6169 18.7966 17.2144 19.7912 18.8551C20.7258 20.3968 21.949 21.1199 22.4632 21.3808L26.0822 14.2462ZM26.7593 15.3671L34.7267 16.0885C34.5112 18.4682 33.4707 20.3321 32.7308 21.4391C31.9106 22.6662 30.9209 23.7548 29.9448 24.6798C27.9865 26.5354 25.5099 28.2726 22.872 29.6609L19.146 22.5816L15.4201 15.5022C16.9273 14.709 18.1708 13.7943 18.9396 13.0658C19.327 12.6986 19.4526 12.5121 19.4285 12.5482C19.4111 12.5742 19.3037 12.7366 19.1795 13.0314C19.0601 13.315 18.8621 13.8704 18.7919 14.6456L26.7593 15.3671ZM19.146 22.5816L22.8819 29.6557C20.6803 30.8183 18.3177 31.7283 16.0745 32.2305C14.9561 32.4809 13.6875 32.6707 12.3739 32.671C11.1827 32.6712 9.26322 32.5212 7.32005 31.5176L10.9912 24.4097L14.6623 17.3017C13.9838 16.9513 13.4069 16.8063 13.0658 16.7426C12.7149 16.6771 12.4697 16.6709 12.3706 16.671C12.1913 16.671 12.2481 16.6911 12.5789 16.617C13.2338 16.4704 14.264 16.1127 15.4102 15.5074L19.146 22.5816ZM10.9912 24.4097L7.25182 31.4819C4.9792 30.2803 3.00078 28.0125 2.51676 24.8753C2.11586 22.2769 2.92073 20.1463 3.46843 18.997L10.6903 22.4386L17.9121 25.8803C18.0009 25.694 18.629 24.3758 18.3297 22.4356C18.1654 21.3707 17.7375 20.2654 16.9935 19.2778C16.2681 18.3148 15.4254 17.7048 14.7306 17.3374L10.9912 24.4097ZM10.6903 22.4386L3.47087 18.9919C5.19131 15.3884 8.65502 12.5684 11.3159 10.8097C14.2175 8.89206 17.9238 7.08658 21.591 6.36612L23.1332 14.2161L24.6754 22.066C23.6709 22.2634 21.9117 22.9856 20.1378 24.1579C19.3054 24.7081 18.6421 25.2455 18.1902 25.6846C17.6689 26.191 17.7202 26.2822 17.9097 25.8854L10.6903 22.4386ZM23.1332 14.2161L21.5398 6.37636C21.884 6.30639 22.5948 6.15407 23.3558 6.08461C24.1845 6.00898 24.9154 6.04377 25.2471 6.05594L24.9538 14.0506L24.6604 22.0452C24.6127 22.0434 24.5727 22.042 24.5375 22.0408C24.5024 22.0396 24.4754 22.0388 24.454 22.0382C24.4327 22.0376 24.42 22.0373 24.4136 22.0372C24.4074 22.0371 24.4099 22.0372 24.4191 22.0372C24.4381 22.0373 24.4889 22.0372 24.5612 22.0345C24.5975 22.0331 24.6374 22.0312 24.6804 22.0284C24.7234 22.0257 24.7668 22.0223 24.8101 22.0184C24.8984 22.0103 24.972 22.0011 25.0252 21.9935C25.0753 21.9864 25.1021 21.9815 25.0939 21.983C25.0903 21.9836 25.0803 21.9854 25.0621 21.9889C25.0439 21.9923 25.0198 21.9969 24.9881 22.0032C24.9563 22.0094 24.9194 22.0168 24.8752 22.0257C24.831 22.0346 24.7823 22.0445 24.7266 22.0558L23.1332 14.2161ZM24.9538 14.0506L25.1442 6.05282C26.0508 6.07441 27.7354 6.12848 29.6599 7.09074L26.0822 14.2462L22.5045 21.4016C22.6642 21.4814 22.9347 21.6071 23.287 21.7275C23.6478 21.8508 23.9841 21.9311 24.2751 21.9818C24.5432 22.0284 24.737 22.0436 24.8006 22.048C24.8612 22.0523 24.8659 22.0507 24.7633 22.0483L24.9538 14.0506ZM27.9328 16.9093L34.8736 12.9311C34.9613 13.0842 35.4728 13.9341 35.8176 14.9261C36.3152 16.3577 36.324 17.557 36.324 18.0377H28.324H20.324C20.324 18.0411 20.3239 18.1122 20.3281 18.2178C20.3325 18.3283 20.3426 18.5011 20.3678 18.715C20.4249 19.1983 20.5362 19.6947 20.7044 20.1789C20.8512 20.6012 20.9998 20.8915 21.037 20.9634C21.0704 21.028 21.0778 21.037 20.9921 20.8875L27.9328 16.9093ZM28.324 18.0377L36.322 18.2195C36.2871 19.7538 35.9332 21.0416 35.4164 22.2046L28.1059 18.9555L20.7954 15.7064C20.7363 15.8392 20.5983 16.1708 20.4872 16.6363C20.3703 17.126 20.333 17.5528 20.3261 17.856L28.324 18.0377ZM28.1059 18.9555L35.3997 22.2418C35.3326 22.3907 35.1187 22.8718 34.8331 23.3638C34.6861 23.617 34.3794 24.1224 33.9032 24.6755C33.4722 25.1761 32.4636 26.2386 30.7871 26.9202C28.7879 27.7331 26.6079 27.6942 24.7066 26.924C23.1217 26.282 22.1497 25.304 21.7457 24.8632C20.9938 24.0427 20.5317 23.1739 20.5213 23.1554L27.4815 19.2113L34.4416 15.2672C34.4387 15.262 34.4241 15.2362 34.4009 15.1973C34.3782 15.1592 34.3378 15.0925 34.2827 15.0074C34.1998 14.8796 33.948 14.4965 33.5414 14.0529C33.1839 13.6628 32.2556 12.7191 30.7136 12.0945C28.8552 11.3417 26.7171 11.3031 24.7607 12.0986C23.127 12.7628 22.162 13.7901 21.7772 14.2371C21.3472 14.7366 21.0892 15.1698 20.9952 15.3318C20.8156 15.6411 20.7249 15.8627 20.812 15.6693L28.1059 18.9555ZM27.4815 19.2113L20.4296 22.9891C20.5203 23.1583 20.6403 23.3602 20.8111 23.5987C20.8808 23.6961 21.073 23.9605 21.3673 24.2798C21.4964 24.4199 21.8242 24.7679 22.3079 25.145C22.5485 25.3325 22.9971 25.6613 23.6176 25.974C24.1386 26.2365 25.4345 26.8276 27.2106 26.8276V18.8276V10.8276C28.9905 10.8276 30.2909 11.4201 30.8172 11.6853C31.4429 12.0006 31.8974 12.3333 32.1446 12.526C32.6416 12.9133 32.9851 13.2765 33.1323 13.4361C33.4625 13.7944 33.6994 14.1153 33.8189 14.2823C34.0894 14.6599 34.3298 15.0536 34.5333 15.4335L27.4815 19.2113ZM27.2106 18.8276V26.8276C28.3257 26.8276 29.163 26.586 29.4077 26.5142C29.7684 26.4084 30.044 26.2982 30.1998 26.2324C30.5159 26.0987 30.7586 25.9686 30.9292 25.8697C31.078 25.7834 31.3864 25.5974 31.7601 25.2992C31.9233 25.1689 32.3337 24.8331 32.7803 24.3156C33.0039 24.0565 33.3903 23.5764 33.7548 22.8994C34.0805 22.2945 34.7066 20.9535 34.7066 19.121H26.7066H18.7066C18.7066 17.2801 19.3357 15.9294 19.6672 15.3138C20.0376 14.626 20.4325 14.1342 20.667 13.8624C21.1354 13.3196 21.5772 12.9551 21.7789 12.7941C22.2294 12.4345 22.6427 12.1794 22.9034 12.0282C23.1859 11.8644 23.5476 11.6736 23.9688 11.4955C23.9743 11.4932 25.3805 10.8276 27.2106 10.8276V18.8276ZM26.7066 19.121H34.7066C34.7066 18.5582 34.6466 18.1059 34.6019 17.8325C34.5541 17.5409 34.4982 17.3016 34.4553 17.1352C34.3718 16.811 34.2849 16.5598 34.2363 16.4254C34.1379 16.1531 34.0472 15.9512 34.0133 15.8767C33.9361 15.7068 33.8771 15.5958 33.8715 15.5854C33.8478 15.5402 33.8527 15.5519 33.8838 15.6042L27.0075 19.6928L20.1312 23.7814C19.9968 23.5553 19.8513 23.2999 19.7184 23.0479C19.6584 22.934 19.5552 22.7346 19.4474 22.4975C19.3982 22.3893 19.2957 22.1592 19.1892 21.8646C19.1366 21.7191 19.0466 21.4582 18.961 21.126C18.9032 20.9016 18.7066 20.1305 18.7066 19.121H26.7066ZM27.0075 19.6928L33.9472 15.7127L34.2406 16.2242L27.3009 20.2043L20.3612 24.1844L20.0679 23.6729L27.0075 19.6928ZM27.3009 20.2043L33.8108 24.8542L33.6603 25.0649L27.1504 20.415L20.6406 15.7651L20.791 15.5544L27.3009 20.2043ZM27.1504 20.415L33.649 25.0806C33.1087 25.8332 32.2725 26.6761 32.0696 26.8825C31.8612 27.0945 31.6128 27.3411 31.3739 27.5644C31.2689 27.6625 31.074 27.8424 30.8427 28.0331C30.7442 28.1143 30.4941 28.3183 30.1608 28.5419C30.0039 28.6472 29.6644 28.8684 29.2058 29.0931C29.0323 29.178 27.625 29.912 25.676 29.912V21.912V13.912C24.553 13.912 23.6868 14.1503 23.2545 14.2879C22.7716 14.4416 22.3969 14.612 22.1679 14.7241C21.7186 14.9441 21.3905 15.1586 21.2469 15.255C20.9401 15.4608 20.7241 15.6387 20.6662 15.6864C20.5785 15.7587 20.5174 15.8129 20.4937 15.8341C20.4659 15.8589 20.4503 15.8736 20.4494 15.8744C20.4488 15.875 20.4697 15.8553 20.5135 15.8122C20.5549 15.7715 20.6052 15.7212 20.6609 15.6646C20.7773 15.5462 20.8836 15.4343 20.9529 15.3589C20.9884 15.3203 20.9922 15.3151 20.9726 15.3379C20.9622 15.3499 20.9321 15.385 20.8892 15.4378C20.8538 15.4814 20.7641 15.593 20.6519 15.7493L27.1504 20.415ZM25.676 21.912V29.912C23.7268 29.912 22.3338 29.1984 21.8955 28.964C21.3021 28.6466 20.8745 28.3207 20.6556 28.1452C20.2068 27.7854 19.8931 27.4537 19.7617 27.3117C19.4613 26.9872 19.2396 26.6958 19.1209 26.535C18.8553 26.1752 18.6066 25.7875 18.3874 25.3978L25.36 21.4757L32.3326 17.5536C32.2488 17.4046 32.143 17.2351 31.9941 17.0333C31.9336 16.9515 31.7636 16.724 31.5042 16.4437C31.3933 16.3239 31.0973 16.0093 30.663 15.6612C30.4513 15.4914 30.0301 15.17 29.4423 14.8556C29.0096 14.6241 27.6213 13.912 25.676 13.912V21.912ZM25.36 21.4757L18.5392 25.6562C18.4353 25.4867 18.3403 25.3266 18.2993 25.2577C18.269 25.2068 18.2748 25.2168 18.2906 25.2425C18.2955 25.2506 18.3378 25.3199 18.3983 25.4124C18.4265 25.4554 18.495 25.5593 18.5884 25.6894C18.6356 25.7551 18.7161 25.865 18.8214 25.9975C18.8754 26.0655 18.949 26.1558 19.0392 26.2598C19.1258 26.3595 19.2567 26.5055 19.4248 26.6737L25.0816 21.0168L30.7385 15.36C31.0463 15.6677 31.2608 15.9337 31.3454 16.0401C31.452 16.1742 31.534 16.2862 31.5829 16.3543C31.6799 16.4893 31.7526 16.5995 31.7858 16.6502C31.8563 16.7579 31.9116 16.848 31.9322 16.8816C31.9793 16.9584 32.0269 17.0385 32.0464 17.0712C32.1051 17.1697 32.1418 17.2315 32.1808 17.2952L25.36 21.4757ZM25.0816 21.0168L19.4248 26.6737C20.9827 28.2316 22.7385 28.7307 23.7258 28.8999C24.7274 29.0716 25.5393 29.0126 25.9641 28.9649C26.8104 28.8698 27.4415 28.6575 27.6452 28.5877C28.139 28.4184 28.4945 28.2386 28.5634 28.2042C28.6934 28.1392 28.7856 28.0878 28.8222 28.0672C28.8659 28.0426 28.8941 28.0257 28.9042 28.0197L24.7882 21.1597L20.6723 14.2998C20.8077 14.2186 21.0821 14.0563 21.408 13.8934C21.5296 13.8326 21.9293 13.6331 22.456 13.4525C22.6762 13.3771 23.3209 13.1612 24.1776 13.065C24.6077 13.0166 25.4241 12.9577 26.4292 13.13C27.4201 13.2998 29.1787 13.8002 30.7385 15.36L25.0816 21.0168ZM24.7882 21.1597L29.0456 27.9328L28.7823 28.0983L24.5249 21.3253L20.2676 14.5522L20.5309 14.3867L24.7882 21.1597ZM24.5249 21.3253L31.5408 17.481L31.8417 18.0302L24.8259 21.8744L17.8101 25.7187L17.5091 25.1695L24.5249 21.3253ZM24.8259 21.8744L31.8417 18.0302L32.1426 18.5793L25.1268 22.4236L18.111 26.2679L17.8101 25.7187L24.8259 21.8744ZM25.1268 22.4236L30.0872 28.7001L29.6208 29.0687L24.6604 22.7922L19.6999 16.5158L20.1663 16.1471L25.1268 22.4236ZM24.6604 22.7922L29.5578 29.118C29.1036 29.4696 28.1049 30.2151 27.5034 30.5812L23.3438 23.7476L19.1843 16.9141C19.1095 16.9596 19.0543 16.9951 19.0287 17.0117C18.9997 17.0305 18.98 17.0437 18.9721 17.049C18.9574 17.0589 18.9591 17.0579 18.9818 17.0421C19.0263 17.0111 19.1007 16.9583 19.1983 16.8875C19.3984 16.7426 19.6135 16.5822 19.763 16.4664L24.6604 22.7922ZM23.3438 23.7476L27.313 30.6936C23.4712 32.8889 20.0269 31.0976 19.2566 30.6475C18.2007 30.0306 17.5333 29.3148 17.2918 29.0483C16.7151 28.412 16.333 27.7957 16.149 27.4859L23.0279 23.4016L29.9067 19.3173C29.8657 19.2482 29.6152 18.82 29.1476 18.304C28.9607 18.0978 28.3421 17.4251 27.3282 16.8327C26.5997 16.4071 23.1902 14.6214 19.3747 16.8017L23.3438 23.7476ZM23.0279 23.4016L16.1118 27.4225C15.9355 27.1193 15.9934 27.2188 16.0339 27.2835C16.0697 27.3405 16.227 27.5919 16.4741 27.9034C16.6993 28.1873 17.2558 28.8538 18.1683 29.4776C19.2165 30.1941 20.6239 30.7768 22.2938 30.8464C23.8178 30.91 24.9808 30.5176 25.5501 30.2887C26.0908 30.0713 26.4799 29.8392 26.5041 29.8251C26.5418 29.8032 26.5714 29.7854 26.5455 29.8009C26.5329 29.8084 26.4849 29.8371 26.4299 29.8694L22.3884 22.9653L18.347 16.0611C18.3305 16.0708 18.3183 16.0782 18.3391 16.0657C18.3466 16.0612 18.4072 16.0249 18.474 15.9861C18.5562 15.9384 18.9953 15.6794 19.5811 15.4438C20.1954 15.1968 21.3984 14.7952 22.9604 14.8603C24.6684 14.9315 26.1119 15.5267 27.1972 16.2686C28.1469 16.9177 28.7416 17.6226 29.009 17.9598C29.2985 18.3247 29.5021 18.6443 29.5914 18.7867C29.7389 19.022 29.9322 19.3604 29.9439 19.3806L23.0279 23.4016ZM22.3884 22.9653L26.56 29.7915L26.2892 29.957L22.1176 23.1308L17.946 16.3045L18.2168 16.139L22.3884 22.9653ZM22.1176 23.1308L29.1455 19.3086L29.3787 19.7374L22.3508 23.5596L15.3229 27.3817L15.0897 26.9529L22.1176 23.1308ZM22.3508 23.5596L29.2691 19.5425C29.3225 19.6345 29.3603 19.6979 29.3767 19.7248C29.3869 19.7416 29.3705 19.7141 29.3362 19.661C29.3196 19.6353 29.2788 19.5724 29.2215 19.4895C29.1921 19.4469 29.1465 19.382 29.0885 19.3033C29.0361 19.2324 28.9376 19.1012 28.805 18.9421L22.6593 24.0636L16.5135 29.1851C16.2739 28.8976 16.1047 28.6523 16.06 28.5876C15.9876 28.4828 15.9289 28.3931 15.8922 28.3362C15.8178 28.2208 15.752 28.1138 15.7068 28.0394C15.6122 27.8839 15.5145 27.7179 15.4325 27.5766L22.3508 23.5596ZM22.6593 24.0636L29.0593 19.2636C31.5341 22.5633 30.603 26.0593 29.8714 27.5833C29.2256 28.9287 28.3612 29.7595 28.0845 30.0208C27.4045 30.663 26.7228 31.0891 26.4639 31.2494L22.253 24.4473L18.0422 17.6452C18.0156 17.6616 17.9252 17.7181 17.796 17.8107C17.6868 17.889 17.4199 18.0851 17.0986 18.3886C16.8896 18.5859 16.0703 19.3612 15.4471 20.6596C15.1076 21.3667 14.6677 22.5555 14.6677 24.0893C14.6677 25.7641 15.1987 27.4496 16.2593 28.8636L22.6593 24.0636ZM22.253 24.4473L26.5357 31.2044C26.0945 31.4841 25.5871 31.7773 25.2079 31.9885C25.0136 32.0967 24.7912 32.2178 24.5794 32.3267C24.485 32.3753 24.3142 32.462 24.115 32.5529C24.0267 32.5932 23.8231 32.6848 23.5631 32.7823C23.4373 32.8295 23.192 32.9184 22.8768 33.0057C22.7211 33.0488 21.8606 33.2974 20.7334 33.2974V25.2974V17.2974C20.0841 17.2974 19.5726 17.3775 19.3043 17.4263C19.0051 17.4808 18.7636 17.5425 18.6062 17.5861C18.2982 17.6714 18.0615 17.7574 17.946 17.8007C17.7063 17.8906 17.5293 17.9709 17.4731 17.9966C17.3953 18.0321 17.3389 18.0596 17.3139 18.0719C17.2856 18.0859 17.2677 18.0951 17.2629 18.0976C17.2581 18.1 17.3117 18.0721 17.423 18.0101C17.655 17.8809 17.8774 17.749 17.9703 17.6902L22.253 24.4473ZM20.7334 25.2974V33.2974C18.0823 33.2974 16.3199 31.9762 16.1055 31.8244C15.554 31.434 15.175 31.059 15.0164 30.8977C14.6708 30.5464 14.4319 30.2372 14.3534 30.135C14.1571 29.8795 14.0075 29.6541 13.9473 29.5628C13.7988 29.3376 13.6581 29.1072 13.5575 28.9394L20.4174 24.8234L27.2774 20.7075C27.3347 20.803 27.3407 20.8095 27.3051 20.7555C27.3013 20.7497 27.1997 20.5934 27.04 20.3857C26.9798 20.3073 26.7565 20.0167 26.4232 19.6779C26.2708 19.5229 25.8972 19.1527 25.3502 18.7655C25.071 18.5679 24.5962 18.2577 23.9562 17.9757C23.359 17.7126 22.2238 17.2974 20.7334 17.2974V25.2974ZM20.4174 24.8234L13.5219 28.8796C13.439 28.7386 13.3851 28.6469 13.3471 28.5831C13.326 28.5476 13.3328 28.5595 13.3542 28.5941C13.3615 28.6059 13.4033 28.6734 13.4632 28.7639C13.4909 28.8059 13.5572 28.9054 13.6475 29.0301C13.6929 29.0929 13.7709 29.1988 13.873 29.3267C13.9254 29.3923 13.9972 29.4803 14.0855 29.5819C14.1698 29.6789 14.2997 29.8238 14.4672 29.9913L20.124 24.3344L25.7809 18.6776C26.086 18.9827 26.2985 19.2459 26.3786 19.3462C26.482 19.4758 26.5616 19.5838 26.6088 19.649C26.7027 19.7788 26.7734 19.8848 26.8064 19.9346C26.8768 20.0409 26.9322 20.13 26.9559 20.1683C27.0102 20.256 27.0612 20.3413 27.0928 20.3942C27.1601 20.5072 27.2454 20.6525 27.3129 20.7673L20.4174 24.8234ZM20.124 24.3344L14.4672 29.9913C16.5114 32.0355 18.8876 32.2684 19.6008 32.3141C20.5329 32.3738 21.2594 32.2531 21.572 32.1943C22.2425 32.0681 22.7346 31.8822 22.8814 31.8263C23.2649 31.6802 23.532 31.5409 23.6435 31.4811C23.7742 31.4112 23.9798 31.2949 24.2341 31.12C24.3543 31.0373 24.6004 30.863 24.894 30.6072C25.0015 30.5135 25.9145 29.7519 26.6281 28.4436L19.6049 24.6128L12.5818 20.782C13.3067 19.453 14.2431 18.666 14.3833 18.5438C14.7096 18.2596 14.9975 18.0538 15.1655 17.9382C15.5155 17.6974 15.841 17.5097 16.0911 17.3758C16.322 17.2521 16.7081 17.0564 17.1854 16.8745C17.3791 16.8007 17.9118 16.6022 18.6136 16.4701C18.9418 16.4084 19.6815 16.2864 20.6242 16.3468C21.3479 16.3932 23.732 16.6287 25.7809 18.6776L20.124 24.3344ZM19.6049 24.6128L25.8519 29.6103C26.8457 28.3681 27.2468 27.1132 27.4195 26.3158C27.5955 25.5035 27.6087 24.8257 27.5965 24.4051C27.5729 23.5872 27.4256 22.9634 27.3591 22.7022C27.2135 22.1303 27.0373 21.7219 26.9819 21.5952C26.839 21.2682 26.7132 21.0541 26.6445 20.943L19.8382 25.1469L13.0318 29.3508C12.8052 28.9839 12.5476 28.5216 12.3201 28.0008C12.2225 27.7773 12.0157 27.2857 11.8538 26.6501C11.7792 26.357 11.6274 25.7062 11.6032 24.867C11.5894 24.3894 11.5094 21.926 13.358 19.6152L19.6049 24.6128ZM19.8382 25.1469L26.7336 21.0908C26.8059 21.2136 26.9321 21.4299 27.0604 21.6752C27.1597 21.865 27.4455 22.4158 27.6736 23.1439C27.8805 23.8044 28.361 25.5817 27.7575 27.7612C27.0678 30.2518 25.434 31.6756 24.4413 32.3374L20.0037 25.681L15.5661 19.0246C14.6184 19.6564 13.0148 21.0463 12.3378 23.4911C11.7469 25.6247 12.2227 27.3442 12.4052 27.9267C12.6088 28.5768 12.8505 29.0293 12.8835 29.0924C12.9455 29.2109 12.9833 29.272 12.9427 29.2031L19.8382 25.1469ZM20.0037 25.681L24.2437 32.465C23.921 32.6667 23.6458 32.8058 23.5767 32.8409C23.4587 32.9009 23.3541 32.951 23.2813 32.9853C23.1333 33.0551 22.9849 33.1216 22.862 33.1758C22.6092 33.2874 22.3221 33.4095 22.0569 33.5198C21.794 33.6291 21.5063 33.7462 21.2543 33.8443C21.1372 33.8899 20.9704 33.9537 20.7954 34.0154C20.7172 34.043 20.554 34.0997 20.3545 34.1593C20.2596 34.1876 20.0693 34.2428 19.828 34.298C19.7615 34.3131 19.0034 34.501 18.0327 34.501V26.501V18.501C17.4546 18.501 17.0042 18.5651 16.8067 18.5959C16.5696 18.6328 16.3797 18.6735 16.2635 18.7001C16.0339 18.7525 15.8584 18.8038 15.7809 18.8269C15.6162 18.876 15.499 18.9174 15.4763 18.9254C15.4123 18.948 15.3946 18.9558 15.4523 18.9333C15.5501 18.8952 15.7157 18.8285 15.9117 18.747C16.1055 18.6663 16.2828 18.5905 16.4024 18.5377C16.4657 18.5098 16.4805 18.5026 16.4604 18.5121C16.4515 18.5162 16.402 18.5395 16.3288 18.5767C16.3045 18.5891 16.0637 18.7095 15.7637 18.8971L20.0037 25.681ZM18.0327 26.501V34.501C15.5304 34.501 13.8405 33.3305 13.5226 33.1152C12.9319 32.7152 12.5209 32.3215 12.3302 32.1316C11.9238 31.7271 11.6366 31.3567 11.5083 31.1874C11.2117 30.7961 10.9686 30.4147 10.7966 30.128L17.6565 26.0121L24.5165 21.8961C24.5024 21.8727 24.421 21.7358 24.2598 21.5231C24.1993 21.4432 23.9732 21.1457 23.6176 20.7917C23.4523 20.6271 23.0641 20.2531 22.4931 19.8665C22.2 19.668 21.7215 19.3721 21.0845 19.108C20.477 18.8563 19.4099 18.501 18.0327 18.501V26.501ZM17.6565 26.0121L10.7463 30.043C10.7617 30.0695 10.8363 30.1979 10.9846 30.3999C11.0394 30.4745 11.2455 30.7547 11.5693 31.093C11.716 31.2463 12.0797 31.6165 12.6183 32.0074C12.8923 32.2062 13.3646 32.5232 14.0054 32.8134C14.5973 33.0813 15.7591 33.5231 17.2954 33.5231V25.5231V17.5231C20.0206 17.5231 21.8218 18.9172 22.0165 19.0585C22.573 19.4624 22.9577 19.8518 23.128 20.0297C23.4991 20.4174 23.763 20.7691 23.8827 20.9321C24.1607 21.3109 24.3933 21.6838 24.5667 21.9811L17.6565 26.0121ZM17.2954 25.5231V33.5231C18.2138 33.5231 18.9153 33.3605 19.1661 33.2996C19.4974 33.2191 19.7564 33.1331 19.9072 33.08C20.2101 32.9734 20.436 32.872 20.5454 32.8213C20.7792 32.7131 20.9709 32.6082 21.133 32.5109L17.0171 25.6509L12.9011 18.791C13.1761 18.626 13.4882 18.4571 13.8234 18.3019C13.9837 18.2277 14.2557 18.107 14.5967 17.987C14.6201 17.9788 15.7851 17.5231 17.2954 17.5231V25.5231ZM17.0171 25.6509L21.133 32.5109C21.2016 32.4697 21.2444 32.4415 21.2329 32.449C21.2305 32.4506 21.2278 32.4523 21.218 32.4588C21.2122 32.4625 21.1919 32.4758 21.1706 32.4896C21.1548 32.4999 21.101 32.5347 21.0346 32.5762C21.0011 32.5971 20.9377 32.6363 20.8577 32.6835C20.8164 32.7078 20.7576 32.742 20.6862 32.7818C20.6196 32.8189 20.5087 32.8795 20.3691 32.9493L16.7914 25.7939L13.2137 18.6385C13.075 18.7078 12.9652 18.7678 12.8999 18.8042C12.8297 18.8433 12.7723 18.8767 12.7326 18.9C12.6557 18.9454 12.5961 18.9823 12.567 19.0005C12.5091 19.0366 12.4664 19.0644 12.4636 19.0662C12.4554 19.0715 12.4502 19.075 12.4613 19.0677C12.4684 19.063 12.4844 19.0526 12.5021 19.041C12.5716 18.9958 12.7197 18.8999 12.9011 18.791L17.0171 25.6509ZM16.7914 25.7939L22.4482 31.4507C23.72 30.179 24.2664 28.7873 24.5079 27.9042C24.751 27.015 24.7892 26.2683 24.7909 25.8274C24.7944 24.9685 24.6555 24.3075 24.5997 24.0569C24.4736 23.4914 24.3121 23.0686 24.2697 22.9573C24.1532 22.6516 24.0441 22.4254 24.0229 22.3811C23.9826 22.2968 23.9509 22.2349 23.9368 22.2076C23.9204 22.1759 23.9088 22.1542 23.9038 22.145C23.8905 22.1203 23.9044 22.1466 23.9426 22.2117L17.0471 26.2678L10.1517 30.324C10.0395 30.1332 9.92168 29.9264 9.81624 29.7306C9.77175 29.6479 9.68413 29.4836 9.59108 29.2892C9.55801 29.2201 9.44017 28.9742 9.31837 28.6545C9.27332 28.5363 9.11001 28.108 8.98302 27.5383C8.92671 27.2857 8.78762 26.6231 8.79108 25.763C8.79274 25.351 8.76358 22.508 11.1345 20.137L16.7914 25.7939ZM17.0471 26.2678L23.9426 22.2117C24.1075 22.4919 24.3041 22.849 24.4857 23.2406C24.5597 23.4 24.7363 23.7879 24.8951 24.2848C24.9609 24.4907 25.1427 25.0741 25.2308 25.8417C25.2739 26.2169 25.3372 26.9764 25.1991 27.9215C25.0746 28.7742 24.6512 30.7148 22.9372 32.4287L17.2804 26.7719L11.6235 21.115C9.91237 22.8262 9.49077 24.7624 9.3671 25.6091C9.22993 26.5483 9.29314 27.3004 9.3352 27.6667C9.4213 28.4167 9.59738 28.9768 9.65411 29.1543C9.79477 29.5946 9.93993 29.9058 9.97155 29.974C10.0686 30.1832 10.1373 30.2995 10.1517 30.324L17.0471 26.2678ZM17.2804 26.7719L23.2596 32.0868C22.4098 33.0428 21.5307 33.5539 21.3473 33.6625C21.015 33.8593 20.7361 33.9919 20.5898 34.059C20.2884 34.1973 20.0371 34.2903 19.9256 34.3307C19.6754 34.4216 19.4495 34.4913 19.3204 34.5303C19.0326 34.6172 18.722 34.7018 18.456 34.7712C18.0774 34.87 17.2003 35.0939 16.5043 35.1971L15.3319 27.2834L14.1595 19.3698C13.9142 19.4061 13.8076 19.437 13.9994 19.3927C14.1122 19.3667 14.2633 19.3295 14.4158 19.2897C14.4898 19.2704 14.5555 19.2527 14.609 19.2379C14.6355 19.2306 14.6566 19.2246 14.6724 19.2201C14.6886 19.2154 14.6958 19.2132 14.6949 19.2135C14.6942 19.2137 14.6901 19.2149 14.683 19.2172C14.676 19.2193 14.6643 19.223 14.6484 19.2282C14.6227 19.2365 14.5571 19.258 14.4664 19.2909C14.402 19.3143 14.1891 19.392 13.9163 19.5172C13.7842 19.5778 13.5171 19.7044 13.1939 19.8958C13.0285 19.9938 12.7825 20.1474 12.4994 20.3581C12.2407 20.5508 11.7841 20.9136 11.3011 21.457L17.2804 26.7719ZM15.3319 27.2834L16.5355 35.1924L16.1894 35.245L14.9859 27.3361L13.7823 19.4271L14.1284 19.3745L15.3319 27.2834ZM14.9859 27.3361L8.04562 31.3152L7.72213 30.7509L14.6624 26.7719L21.6026 22.7928L21.9261 23.357L14.9859 27.3361ZM14.6624 26.7719L7.68233 30.6807L7.36636 30.1165L14.3464 26.2076L21.3265 22.2988L21.6424 22.863L14.6624 26.7719ZM14.3464 26.2076L18.3547 33.1311L18.0688 33.2966L14.0605 26.3732L10.0522 19.4497L10.3381 19.2842L14.3464 26.2076ZM14.0605 26.3732L18.0688 33.2966L17.783 33.4621L13.7747 26.5387L9.76638 19.6153L10.0522 19.4497L14.0605 26.3732ZM13.7747 26.5387L20.6702 22.4825L20.8958 22.8662L14.0004 26.9223L7.10488 30.9785L6.8792 30.5948L13.7747 26.5387ZM14.0004 26.9223L20.9463 22.9532C21.0642 23.1595 21.1915 23.3935 21.31 23.6305C21.3635 23.7375 21.4581 23.9304 21.558 24.1641C21.6039 24.2715 21.6983 24.4974 21.7958 24.7869C21.8442 24.9307 21.9247 25.1822 22.0005 25.501C22.0547 25.7291 22.2185 26.4363 22.2185 27.3587H14.2185H6.21853C6.21853 28.2773 6.38154 28.9794 6.43426 29.2012C6.50856 29.5137 6.58688 29.7578 6.63239 29.8929C6.72406 30.1651 6.80991 30.3691 6.84475 30.4507C6.92252 30.6327 6.98517 30.7579 6.99916 30.7859C7.02248 30.8325 7.03766 30.8609 7.04256 30.87C7.04857 30.8811 7.05216 30.8875 7.05441 30.8914L14.0004 26.9223ZM14.2185 27.3587H22.2185C22.2185 31.0657 19.8559 33.183 18.8093 33.9187C17.7469 34.6655 16.7606 34.9679 16.3993 35.0723C15.5714 35.3113 14.8805 35.3641 14.6674 35.3799C14.0901 35.4228 13.5829 35.4043 13.2827 35.3875C12.7905 35.36 11.7139 35.2741 10.5945 34.9297L12.9472 27.2834L15.2998 19.6372C14.8307 19.4928 14.4984 19.4471 14.4479 19.4399C14.3415 19.4246 14.2573 19.4171 14.1764 19.4125C14.1452 19.4108 13.8824 19.3942 13.4824 19.4239C13.3579 19.4331 12.7388 19.4756 11.9606 19.7003C11.6241 19.7975 10.6571 20.0917 9.60778 20.8293C8.57432 21.5558 6.21853 23.6629 6.21853 27.3587H14.2185ZM12.9472 27.2834L10.7494 34.9756C10.0216 34.7677 9.40068 34.4926 8.93487 34.2518C8.57185 34.0641 7.7171 33.6014 6.86626 32.8038L12.3378 26.9675L17.8093 21.1312C17.3813 20.7299 17.0076 20.4746 16.8248 20.3554C16.6109 20.2159 16.4257 20.1127 16.2824 20.0386C16.0385 19.9125 15.6621 19.739 15.1449 19.5912L12.9472 27.2834ZM12.3378 26.9675L6.89418 32.8298C6.30554 32.2832 5.90468 31.7388 5.84426 31.6587C5.68888 31.4528 5.55416 31.2588 5.45539 31.113C5.25284 30.8141 5.05229 30.4971 4.88168 30.2165C4.7179 29.9471 4.51776 29.6064 4.33803 29.2672C4.26482 29.1291 4.09788 28.8104 3.9359 28.4224C3.87493 28.2764 3.67108 27.7868 3.51686 27.1395C3.44845 26.8524 3.28016 26.0991 3.29806 25.1222C3.30957 24.4939 3.40411 21.5382 6.03158 19.2391L11.2996 25.2598L16.5677 31.2804C19.1914 28.9846 19.284 26.035 19.2954 25.4152C19.3131 24.447 19.1464 23.7049 19.0812 23.4314C18.9335 22.8114 18.7428 22.3588 18.7007 22.258C18.6281 22.0841 18.5669 21.9571 18.5398 21.9018C18.5084 21.8375 18.4852 21.7935 18.4756 21.7754C18.452 21.7308 18.4757 21.777 18.5526 21.9035C18.6227 22.0188 18.6799 22.1067 18.7011 22.138C18.7143 22.1574 18.683 22.1099 18.6162 22.0215C18.5826 21.9769 18.5114 21.8839 18.4104 21.7639C18.3344 21.6737 18.1115 21.4116 17.7814 21.1051L12.3378 26.9675ZM11.2996 25.2598L5.64277 19.6029C7.28398 17.9617 9.16401 17.548 9.29343 17.5144C9.83336 17.3741 10.2709 17.3217 10.4645 17.301C10.8852 17.2559 11.2213 17.2541 11.3516 17.2541C11.6638 17.2541 11.9267 17.2713 12.0747 17.2824C12.4069 17.3075 12.7564 17.3491 13.0965 17.4028L11.8488 25.3049L10.6011 33.207C10.6554 33.2156 10.7377 33.227 10.8706 33.2371C10.9189 33.2407 11.0991 33.2541 11.3516 33.2541C11.452 33.2541 11.764 33.2532 12.1671 33.2101C12.352 33.1903 12.7823 33.1391 13.3168 33.0002C13.5874 32.9299 14.0382 32.7983 14.5684 32.5611C15.0342 32.3527 16.0014 31.8717 16.9565 30.9166L11.2996 25.2598ZM11.8488 25.3049L12.9269 17.3779C12.5987 17.3332 12.3846 17.339 12.3256 17.3414C12.2576 17.3441 12.2663 17.3479 12.3618 17.3329C12.5618 17.3013 12.9412 17.2192 13.4921 17.042L15.9413 24.6579L18.3904 32.2738C16.3631 32.9258 13.5239 33.6064 10.7707 33.2319L11.8488 25.3049ZM15.9413 24.6579L13.4797 17.0461C14.9396 16.5739 16.6871 15.6561 18.1571 14.5722C18.8727 14.0445 19.3972 13.5691 19.7263 13.2154C20.115 12.7974 19.9843 12.8165 19.7786 13.3113L27.1655 16.3827L34.5524 19.4541C33.0965 22.9557 30.014 25.7088 27.6523 27.4501C25.0054 29.4018 21.7351 31.1922 18.4029 32.2698L15.9413 24.6579ZM27.1655 16.3827L19.7611 13.3536C19.7636 13.3475 19.7646 13.3449 19.7807 13.3051C19.7912 13.2791 19.82 13.2074 19.8534 13.1277C19.8848 13.0527 20.091 12.5464 20.433 11.9788C20.6289 11.6536 21.7604 9.71026 24.2599 8.66879C27.6254 7.2665 30.5407 8.518 31.9291 9.4725C33.0614 10.251 33.7208 11.1421 33.8775 11.3511C34.1274 11.6847 34.3129 11.9823 34.3977 12.1201C34.5577 12.3801 34.7619 12.7378 34.8574 12.9029L27.9328 16.9093L21.0083 20.9156C20.9123 20.7497 20.8724 20.6799 20.8148 20.5807C20.763 20.4916 20.7568 20.4823 20.7712 20.5056C20.7713 20.5058 20.8855 20.695 21.0742 20.9467C21.1695 21.0739 21.7774 21.9097 22.8646 22.6572C24.2078 23.5806 27.0843 24.8253 30.4138 23.438C32.8774 22.4115 33.9757 20.5049 34.1377 20.236C34.3152 19.9415 34.4335 19.6996 34.4923 19.5753C34.5546 19.4434 34.5966 19.3437 34.6102 19.3114C34.6242 19.278 34.6326 19.2568 34.6211 19.2853C34.6152 19.2999 34.5928 19.3557 34.5699 19.4117L27.1655 16.3827Z" fill="black" mask="url(#path-8-inside-4_674_769)"/>
<mask id="path-10-inside-5_674_769" fill="white">
<path d="M23.9603 14.8855C21.9742 15.1488 18.7093 16.6233 15.7979 18.5642C13.857 19.8582 12.4352 21.1145 11.8935 22.0173C11.5776 22.5439 11.5023 23.0855 11.6979 23.3864C12.4577 24.5525 16.8662 23.1081 21.1768 20.2794C22.3353 19.5121 22.8243 19.151 23.7572 18.3536C25.5476 16.8038 26.0818 15.5174 25.1264 15.0284C24.9082 14.9156 24.2913 14.8479 23.9603 14.8855ZM24.7878 15.5926C24.9608 15.6604 24.9834 15.698 24.9458 15.8785C24.7352 16.7437 22.6889 18.5793 20.1988 20.129C18.2128 21.3628 15.5948 22.5739 14.0676 22.9651C13.2552 23.1758 12.4653 23.2059 12.2922 23.0253C12.1794 22.9125 12.1794 22.8824 12.3449 22.5439C12.9843 21.265 16.0612 18.9178 19.1832 17.3229C21.7636 16.0139 24.0355 15.3068 24.7878 15.5926Z"/>
</mask>
<path d="M23.9603 14.8855C21.9742 15.1488 18.7093 16.6233 15.7979 18.5642C13.857 19.8582 12.4352 21.1145 11.8935 22.0173C11.5776 22.5439 11.5023 23.0855 11.6979 23.3864C12.4577 24.5525 16.8662 23.1081 21.1768 20.2794C22.3353 19.5121 22.8243 19.151 23.7572 18.3536C25.5476 16.8038 26.0818 15.5174 25.1264 15.0284C24.9082 14.9156 24.2913 14.8479 23.9603 14.8855ZM24.7878 15.5926C24.9608 15.6604 24.9834 15.698 24.9458 15.8785C24.7352 16.7437 22.6889 18.5793 20.1988 20.129C18.2128 21.3628 15.5948 22.5739 14.0676 22.9651C13.2552 23.1758 12.4653 23.2059 12.2922 23.0253C12.1794 22.9125 12.1794 22.8824 12.3449 22.5439C12.9843 21.265 16.0612 18.9178 19.1832 17.3229C21.7636 16.0139 24.0355 15.3068 24.7878 15.5926Z" fill="black"/>
<path d="M23.9603 14.8855L22.9089 6.95488L22.9829 6.94507L23.057 6.93665L23.9603 14.8855ZM11.6979 23.3864L4.99531 27.7539L4.99037 27.7463L11.6979 23.3864ZM21.1768 20.2794L25.5944 26.9491L25.5801 26.9586L25.5658 26.968L21.1768 20.2794ZM23.7572 18.3536L28.9928 24.4024L28.9741 24.4185L28.9554 24.4345L23.7572 18.3536ZM25.1264 15.0284L21.4815 22.1499L21.4662 22.1421L21.451 22.1342L25.1264 15.0284ZM24.7878 15.5926L27.6296 8.11438L27.6664 8.12836L27.703 8.14271L24.7878 15.5926ZM24.9458 15.8785L32.7776 17.5101L32.7504 17.6411L32.7187 17.7711L24.9458 15.8785ZM20.1988 20.129L24.4259 26.921L24.4203 26.9245L20.1988 20.129ZM14.0676 22.9651L12.0599 15.2212L12.0712 15.2182L12.0825 15.2154L14.0676 22.9651ZM12.2922 23.0253L17.9491 17.3685L18.0093 17.4287L18.0682 17.4901L12.2922 23.0253ZM12.3449 22.5439L5.15782 19.0302L5.1735 18.9981L5.18947 18.9662L12.3449 22.5439ZM19.1832 17.3229L15.5439 10.1987L15.5539 10.1935L15.564 10.1884L19.1832 17.3229ZM23.9603 14.8855L25.0117 22.8161C25.1395 22.7992 24.6456 22.8786 23.5148 23.3885C22.5039 23.8444 21.3429 24.4824 20.2355 25.2206L15.7979 18.5642L11.3603 11.9078C14.6282 9.72921 19.1151 7.45785 22.9089 6.95488L23.9603 14.8855ZM15.7979 18.5642L20.2355 25.2206C19.49 25.7176 18.9526 26.1367 18.6201 26.4307C18.4562 26.5756 18.3888 26.6491 18.3906 26.6471C18.3938 26.6435 18.4292 26.6044 18.4862 26.53C18.5414 26.458 18.6384 26.325 18.7535 26.1332L11.8935 22.0173L5.03357 17.9013C5.92698 16.4123 7.12848 15.2341 8.02186 14.4442C9.02091 13.5608 10.1649 12.7047 11.3603 11.9078L15.7979 18.5642ZM11.8935 22.0173L18.7535 26.1332C19.0454 25.6467 19.3834 24.906 19.5247 23.9091C19.6478 23.0411 19.7338 21.0701 18.4055 19.0265L11.6979 23.3864L4.99037 27.7463C3.46645 25.4018 3.49232 23.0095 3.68305 21.6638C3.89205 20.1892 4.42568 18.9144 5.03357 17.9013L11.8935 22.0173ZM11.6979 23.3864L18.4005 19.0189C17.2536 17.2588 15.6836 16.4467 14.6543 16.1069C13.6862 15.7874 12.9409 15.7866 12.6806 15.7935C12.1699 15.8071 12.0944 15.8992 12.6143 15.7288C13.5411 15.4251 15.0855 14.7079 16.7878 13.5909L21.1768 20.2794L25.5658 26.968C22.9575 28.6796 20.1424 30.099 17.5973 30.9331C16.3813 31.3316 14.7918 31.743 13.1062 31.7878C12.035 31.8163 7.63469 31.8045 4.99531 27.7539L11.6979 23.3864ZM21.1768 20.2794L16.7592 13.6098C17.6998 12.9868 17.9189 12.8198 18.5589 12.2726L23.7572 18.3536L28.9554 24.4345C27.7298 25.4823 26.9709 26.0374 25.5944 26.9491L21.1768 20.2794ZM23.7572 18.3536L18.5216 12.3047C19.114 11.792 18.5574 12.0762 18.0765 13.2412C17.8091 13.8891 17.2862 15.5069 17.8315 17.5756C18.4524 19.9308 20.0646 21.4247 21.4815 22.1499L25.1264 15.0284L28.7712 7.90697C30.6658 8.87667 32.5695 10.7147 33.303 13.4971C33.961 15.993 33.3717 18.1209 32.8664 19.3453C31.9097 21.6632 30.1908 23.3654 28.9928 24.4024L23.7572 18.3536ZM25.1264 15.0284L21.451 22.1342C21.9242 22.3789 22.3191 22.5195 22.5367 22.5908C22.7757 22.6691 22.9706 22.7185 23.0991 22.7482C23.3506 22.8062 23.5389 22.8325 23.647 22.8453C23.7641 22.8591 23.8928 22.8694 24.0421 22.8733C24.1628 22.8765 24.4579 22.8804 24.8636 22.8343L23.9603 14.8855L23.057 6.93665C24.0636 6.82226 24.9713 6.89046 25.5243 6.95579C25.7957 6.98786 27.291 7.14127 28.8017 7.92269L25.1264 15.0284ZM24.7878 15.5926L27.703 8.14271C27.826 8.19083 28.4128 8.41563 29.0749 8.82191C29.8147 9.27584 31.0328 10.1843 31.9314 11.7943C32.8396 13.4216 32.9749 14.963 32.9603 15.8927C32.9475 16.7134 32.8089 17.3602 32.7776 17.5101L24.9458 15.8785L17.114 14.2469C17.1015 14.3065 16.9742 14.881 16.9623 15.6417C16.9487 16.5115 17.0745 18.0053 17.9602 19.5922C18.8363 21.1618 20.0186 22.0369 20.7066 22.4591C21.317 22.8336 21.8361 23.0283 21.8726 23.0426L24.7878 15.5926ZM24.9458 15.8785L32.7187 17.7711C32.2216 19.8126 31.0739 21.2465 30.655 21.7581C30.0511 22.4956 29.38 23.1548 28.7653 23.7055C27.5205 24.8207 26.0032 25.9394 24.4259 26.921L20.1988 20.129L15.9717 13.337C16.8845 12.7689 17.6354 12.1949 18.0889 11.7886C18.3234 11.5785 18.3589 11.5197 18.2758 11.6213C18.232 11.6747 18.0867 11.8559 17.9094 12.1536C17.8175 12.3081 17.6955 12.5297 17.5703 12.8126C17.4471 13.0907 17.2942 13.4875 17.1729 13.986L24.9458 15.8785ZM20.1988 20.129L24.4203 26.9245C22.0432 28.4012 18.6523 30.049 16.0528 30.7149L14.0676 22.9651L12.0825 15.2154C12.0734 15.2177 12.218 15.1787 12.5333 15.0581C12.8289 14.9451 13.1928 14.7917 13.6023 14.6023C14.4371 14.2161 15.2955 13.757 15.9774 13.3335L20.1988 20.129ZM14.0676 22.9651L16.0754 30.7091C15.2067 30.9343 14.2218 31.1018 13.2215 31.137C12.7417 31.1539 12.0054 31.1505 11.1605 31.0039C10.7203 30.9275 8.42775 30.5551 6.51632 28.5606L12.2922 23.0253L18.0682 17.4901C17.044 16.4214 15.9694 15.903 15.3796 15.6649C14.7455 15.4089 14.2127 15.2944 13.8963 15.2395C13.2735 15.1315 12.8179 15.1413 12.6588 15.1469C12.2998 15.1595 12.1162 15.2066 12.0599 15.2212L14.0676 22.9651ZM12.2922 23.0253L6.63537 28.6822C6.58104 28.6278 6.38896 28.436 6.16842 28.1774C5.94026 27.9099 5.5785 27.453 5.23147 26.8265C4.38604 25.3002 4.09414 23.6247 4.25624 22.05C4.38064 20.8416 4.75487 19.9395 4.85458 19.6975C4.98558 19.3797 5.12248 19.1025 5.15782 19.0302L12.3449 22.5439L19.532 26.0575C19.4846 26.1545 19.5594 26.008 19.6474 25.7945C19.7041 25.657 20.0543 24.8329 20.1721 23.6884C20.3276 22.1777 20.0466 20.552 19.2277 19.0737C18.8939 18.4712 18.5494 18.0378 18.3422 17.7948C18.1426 17.5608 17.9752 17.3946 17.9491 17.3685L12.2922 23.0253ZM12.3449 22.5439L5.18947 18.9662C5.93442 17.4763 6.98045 16.3594 7.60289 15.7404C8.34316 15.0042 9.16766 14.3121 9.97923 13.6926C11.6016 12.4543 13.5581 11.2131 15.5439 10.1987L19.1832 17.3229L22.8226 24.4472C21.6864 25.0276 20.5434 25.7575 19.687 26.4111C19.2591 26.7377 18.9994 26.9718 18.8854 27.0853C18.8308 27.1395 18.8627 27.1136 18.9464 27.0088C19.0117 26.927 19.2494 26.6234 19.5003 26.1216L12.3449 22.5439ZM19.1832 17.3229L15.564 10.1884C17.1393 9.38927 18.7797 8.68962 20.3061 8.21728C21.0569 7.98493 21.9638 7.74984 22.9292 7.6247C23.6162 7.53565 25.5331 7.31771 27.6296 8.11438L24.7878 15.5926L21.9461 23.0709C22.4586 23.2657 22.9106 23.3717 23.2567 23.432C23.6058 23.4928 23.9013 23.5164 24.1229 23.5251C24.5511 23.5419 24.8568 23.5087 24.986 23.4919C25.2332 23.4599 25.2698 23.4298 25.0361 23.5021C24.5933 23.6392 23.8075 23.9476 22.8025 24.4574L19.1832 17.3229Z" fill="black" mask="url(#path-10-inside-5_674_769)"/>
<mask id="path-12-inside-6_674_769" fill="white">
<path d="M6.84602 20.8884V21.3021L6.45482 21.3247L6.05611 21.3473L6.03354 21.6632L6.01097 21.9867H6.42473H6.84602V22.4005V22.8142H7.18455H7.52308V22.4005V21.9867H7.93684H8.3506V21.6482V21.3096H7.93684H7.52308V20.8959V20.4821H7.18455H6.84602V20.8884Z"/>
</mask>
<path d="M6.84602 20.8884V21.3021L6.45482 21.3247L6.05611 21.3473L6.03354 21.6632L6.01097 21.9867H6.42473H6.84602V22.4005V22.8142H7.18455H7.52308V22.4005V21.9867H7.93684H8.3506V21.6482V21.3096H7.93684H7.52308V20.8959V20.4821H7.18455H6.84602V20.8884Z" fill="black"/>
<path d="M6.84602 21.3021H14.846V28.8539L7.30679 29.2888L6.84602 21.3021ZM6.45482 21.3247L6.9156 29.3114L6.90693 29.3119L6.45482 21.3247ZM6.05611 21.3473L-1.92356 20.7773L-1.42217 13.7578L5.604 13.36L6.05611 21.3473ZM6.03354 21.6632L-1.94707 21.1064L-1.94613 21.0933L6.03354 21.6632ZM6.01097 21.9867V29.9867H-2.56661L-1.96963 21.4299L6.01097 21.9867ZM6.84602 21.9867V13.9867H14.846V21.9867H6.84602ZM6.84602 22.8142V30.8142H-1.15398V22.8142H6.84602ZM7.52308 22.8142H15.5231V30.8142H7.52308V22.8142ZM7.52308 21.9867H-0.47692V13.9867H7.52308V21.9867ZM8.3506 21.9867H16.3506V29.9867H8.3506V21.9867ZM8.3506 21.3096V13.3096H16.3506V21.3096H8.3506ZM7.52308 21.3096V29.3096H-0.47692V21.3096H7.52308ZM7.52308 20.4821V12.4821H15.5231V20.4821H7.52308ZM6.84602 20.4821H-1.15398V12.4821H6.84602V20.4821ZM6.84602 20.8884H14.846V21.3021H6.84602H-1.15398V20.8884H6.84602ZM6.84602 21.3021L7.30679 29.2888L6.9156 29.3114L6.45482 21.3247L5.99405 13.338L6.38524 13.3154L6.84602 21.3021ZM6.45482 21.3247L6.90693 29.3119L6.50822 29.3345L6.05611 21.3473L5.604 13.36L6.00272 13.3375L6.45482 21.3247ZM6.05611 21.3473L14.0358 21.9172L14.0132 22.2332L6.03354 21.6632L-1.94613 21.0933L-1.92356 20.7773L6.05611 21.3473ZM6.03354 21.6632L14.0141 22.22L13.9916 22.5435L6.01097 21.9867L-1.96963 21.4299L-1.94706 21.1064L6.03354 21.6632ZM6.01097 21.9867V13.9867H6.42473V21.9867V29.9867H6.01097V21.9867ZM6.42473 21.9867V13.9867H6.84602V21.9867V29.9867H6.42473V21.9867ZM6.84602 21.9867H14.846V22.4005H6.84602H-1.15398V21.9867H6.84602ZM6.84602 22.4005H14.846V22.8142H6.84602H-1.15398V22.4005H6.84602ZM6.84602 22.8142V14.8142H7.18455V22.8142V30.8142H6.84602V22.8142ZM7.18455 22.8142V14.8142H7.52308V22.8142V30.8142H7.18455V22.8142ZM7.52308 22.8142H-0.47692V22.4005H7.52308H15.5231V22.8142H7.52308ZM7.52308 22.4005H-0.47692V21.9867H7.52308H15.5231V22.4005H7.52308ZM7.52308 21.9867V13.9867H7.93684V21.9867V29.9867H7.52308V21.9867ZM7.93684 21.9867V13.9867H8.3506V21.9867V29.9867H7.93684V21.9867ZM8.3506 21.9867H0.350603V21.6482H8.3506H16.3506V21.9867H8.3506ZM8.3506 21.6482H0.350603V21.3096H8.3506H16.3506V21.6482H8.3506ZM8.3506 21.3096V29.3096H7.93684V21.3096V13.3096H8.3506V21.3096ZM7.93684 21.3096V29.3096H7.52308V21.3096V13.3096H7.93684V21.3096ZM7.52308 21.3096H-0.47692V20.8959H7.52308H15.5231V21.3096H7.52308ZM7.52308 20.8959H-0.47692V20.4821H7.52308H15.5231V20.8959H7.52308ZM7.52308 20.4821V28.4821H7.18455V20.4821V12.4821H7.52308V20.4821ZM7.18455 20.4821V28.4821H6.84602V20.4821V12.4821H7.18455V20.4821ZM6.84602 20.4821H14.846V20.8884H6.84602H-1.15398V20.4821H6.84602Z" fill="black" mask="url(#path-12-inside-6_674_769)"/>
<path d="M34.9637 24.0311V13.8492H38.593C39.3818 13.8492 40.0364 13.9851 40.5568 14.2569C41.0805 14.5287 41.4716 14.9049 41.7301 15.3855C41.9886 15.8627 42.1179 16.4146 42.1179 17.041C42.1179 17.6641 41.9869 18.2126 41.7251 18.6866C41.4666 19.1572 41.0755 19.5235 40.5518 19.7853C40.0315 20.0472 39.3769 20.1781 38.588 20.1781H35.8387V18.8556H38.4488C38.946 18.8556 39.3503 18.7844 39.6619 18.6419C39.9768 18.4993 40.2071 18.2922 40.353 18.0204C40.4988 17.7486 40.5717 17.4222 40.5717 17.041C40.5717 16.6565 40.4971 16.3234 40.348 16.0417C40.2021 15.76 39.9718 15.5446 39.6569 15.3954C39.3454 15.2429 38.936 15.1667 38.4289 15.1667H36.5V24.0311H34.9637ZM39.99 19.4373L42.5057 24.0311H40.7557L38.2897 19.4373H39.99ZM47.2034 24.1852C46.451 24.1852 45.803 24.0244 45.2595 23.7029C44.7192 23.3781 44.3016 22.9224 44.0066 22.3357C43.715 21.7458 43.5691 21.0547 43.5691 20.2626C43.5691 19.4804 43.715 18.791 44.0066 18.1944C44.3016 17.5978 44.7126 17.1321 45.2396 16.7974C45.7699 16.4626 46.3897 16.2953 47.099 16.2953C47.5298 16.2953 47.9474 16.3665 48.3518 16.509C48.7561 16.6516 49.1191 16.8753 49.4406 17.1802C49.7621 17.4851 50.0156 17.8812 50.2012 18.3684C50.3868 18.8523 50.4796 19.4406 50.4796 20.1333V20.6603H44.4093V19.5467H49.023C49.023 19.1556 48.9434 18.8092 48.7843 18.5076C48.6252 18.2027 48.4015 17.9624 48.1132 17.7867C47.8281 17.6111 47.4934 17.5232 47.1089 17.5232C46.6913 17.5232 46.3267 17.626 46.0151 17.8315C45.7069 18.0337 45.4683 18.2988 45.2992 18.6269C45.1335 18.9518 45.0507 19.3047 45.0507 19.6859V20.5559C45.0507 21.0663 45.1401 21.5005 45.3191 21.8585C45.5014 22.2164 45.755 22.4899 46.0798 22.6788C46.4046 22.8644 46.7841 22.9572 47.2183 22.9572C47.5 22.9572 47.7569 22.9174 47.9889 22.8379C48.2209 22.755 48.4214 22.6324 48.5904 22.47C48.7595 22.3076 48.8887 22.1071 48.9782 21.8684L50.3852 22.122C50.2725 22.5363 50.0703 22.8992 49.7786 23.2107C49.4903 23.519 49.1274 23.7593 48.6899 23.9316C48.2557 24.1007 47.7602 24.1852 47.2034 24.1852ZM53.7555 19.497V24.0311H52.269V16.3947H53.6958V17.6376H53.7903C53.9659 17.2332 54.241 16.9084 54.6156 16.6632C54.9934 16.4179 55.469 16.2953 56.0424 16.2953C56.5628 16.2953 57.0185 16.4046 57.4096 16.6234C57.8007 16.8388 58.104 17.1603 58.3194 17.5879C58.5348 18.0154 58.6425 18.5441 58.6425 19.1738V24.0311H57.156V19.3528C57.156 18.7993 57.0119 18.3668 56.7235 18.0552C56.4352 17.7403 56.0391 17.5829 55.5353 17.5829C55.1906 17.5829 54.884 17.6575 54.6156 17.8066C54.3504 17.9558 54.1399 18.1745 53.9842 18.4629C53.8317 18.7479 53.7555 19.0926 53.7555 19.497ZM64.3408 16.3947V17.5879H60.1696V16.3947H64.3408ZM61.2882 14.5652H62.7747V21.7889C62.7747 22.0772 62.8178 22.2943 62.904 22.4402C62.9902 22.5827 63.1012 22.6804 63.2371 22.7335C63.3763 22.7832 63.5271 22.808 63.6895 22.808C63.8088 22.808 63.9132 22.7998 64.0027 22.7832C64.0922 22.7666 64.1618 22.7534 64.2115 22.7434L64.48 23.9714C64.3938 24.0045 64.2712 24.0377 64.1121 24.0708C63.953 24.1073 63.7541 24.1272 63.5155 24.1305C63.1244 24.1371 62.7598 24.0675 62.4217 23.9217C62.0837 23.7759 61.8102 23.5505 61.6014 23.2455C61.3926 22.9406 61.2882 22.5578 61.2882 22.0971V14.5652ZM66.4085 24.0311V13.8492H67.9447V22.7086H72.5584V24.0311H66.4085ZM77.5482 24.1852C76.8322 24.1852 76.2075 24.0211 75.6739 23.693C75.1403 23.3649 74.726 22.9058 74.431 22.3159C74.136 21.7259 73.9885 21.0365 73.9885 20.2477C73.9885 19.4555 74.136 18.7628 74.431 18.1696C74.726 17.5763 75.1403 17.1156 75.6739 16.7875C76.2075 16.4593 76.8322 16.2953 77.5482 16.2953C78.2641 16.2953 78.8888 16.4593 79.4224 16.7875C79.9561 17.1156 80.3704 17.5763 80.6653 18.1696C80.9603 18.7628 81.1078 19.4555 81.1078 20.2477C81.1078 21.0365 80.9603 21.7259 80.6653 22.3159C80.3704 22.9058 79.9561 23.3649 79.4224 23.693C78.8888 24.0211 78.2641 24.1852 77.5482 24.1852ZM77.5531 22.9373C78.0171 22.9373 78.4016 22.8147 78.7065 22.5694C79.0115 22.3241 79.2368 21.9977 79.3827 21.59C79.5318 21.1823 79.6064 20.7332 79.6064 20.2427C79.6064 19.7555 79.5318 19.308 79.3827 18.9004C79.2368 18.4894 79.0115 18.1596 78.7065 17.911C78.4016 17.6625 78.0171 17.5382 77.5531 17.5382C77.0858 17.5382 76.698 17.6625 76.3898 17.911C76.0849 18.1596 75.8578 18.4894 75.7087 18.9004C75.5628 19.308 75.4899 19.7555 75.4899 20.2427C75.4899 20.7332 75.5628 21.1823 75.7087 21.59C75.8578 21.9977 76.0849 22.3241 76.3898 22.5694C76.698 22.8147 77.0858 22.9373 77.5531 22.9373ZM86.1237 24.1852C85.3846 24.1852 84.7482 24.0178 84.2146 23.683C83.6843 23.345 83.2766 22.8793 82.9916 22.286C82.7066 21.6928 82.564 21.0133 82.564 20.2477C82.564 19.4721 82.7099 18.7877 83.0015 18.1944C83.2932 17.5978 83.7042 17.1321 84.2345 16.7974C84.7648 16.4626 85.3896 16.2953 86.1088 16.2953C86.6888 16.2953 87.2059 16.403 87.6599 16.6184C88.114 16.8305 88.4802 17.1288 88.7586 17.5133C89.0404 17.8978 89.2077 18.3469 89.2608 18.8606H87.814C87.7345 18.5027 87.5522 18.1944 87.2672 17.9359C86.9854 17.6774 86.6076 17.5481 86.1336 17.5481C85.7193 17.5481 85.3564 17.6575 85.0449 17.8762C84.7366 18.0917 84.4963 18.3999 84.324 18.8009C84.1516 19.1987 84.0655 19.6693 84.0655 20.2129C84.0655 20.7697 84.15 21.2503 84.319 21.6546C84.4881 22.059 84.7267 22.3722 85.0349 22.5943C85.3465 22.8163 85.7127 22.9274 86.1336 22.9274C86.4154 22.9274 86.6706 22.876 86.8993 22.7732C87.1313 22.6672 87.3252 22.5164 87.4809 22.3208C87.64 22.1253 87.7511 21.89 87.814 21.6149H89.2608C89.2077 22.1087 89.047 22.5495 88.7785 22.9373C88.5101 23.3251 88.1505 23.63 87.6997 23.8521C87.2523 24.0741 86.7269 24.1852 86.1237 24.1852ZM93.2127 24.2001C92.7288 24.2001 92.2913 24.1106 91.9002 23.9316C91.5091 23.7493 91.1993 23.4858 90.9706 23.1411C90.7452 22.7964 90.6325 22.3739 90.6325 21.8734C90.6325 21.4425 90.7153 21.0879 90.8811 20.8095C91.0468 20.5311 91.2705 20.3107 91.5522 20.1482C91.834 19.9858 92.1488 19.8632 92.4968 19.7803C92.8448 19.6975 93.1995 19.6345 93.5608 19.5914C94.0181 19.5384 94.3894 19.4953 94.6744 19.4622C94.9594 19.4257 95.1666 19.3677 95.2958 19.2882C95.4251 19.2086 95.4897 19.0794 95.4897 18.9004V18.8656C95.4897 18.4314 95.3671 18.095 95.1218 17.8563C94.8799 17.6177 94.5186 17.4984 94.038 17.4984C93.5376 17.4984 93.1431 17.6094 92.8548 17.8315C92.5698 18.0502 92.3725 18.2938 92.2632 18.5623L90.8662 18.2441C91.0319 17.7801 91.2738 17.4056 91.592 17.1205C91.9135 16.8322 92.2831 16.6234 92.7007 16.4941C93.1183 16.3616 93.5574 16.2953 94.0181 16.2953C94.3231 16.2953 94.6462 16.3317 94.9876 16.4046C95.3323 16.4742 95.6538 16.6035 95.9521 16.7924C96.2537 16.9813 96.5006 17.2515 96.6929 17.6028C96.8851 17.9508 96.9812 18.4032 96.9812 18.96V24.0311H95.5295V22.987H95.4698C95.3737 23.1793 95.2296 23.3682 95.0373 23.5538C94.8451 23.7394 94.5982 23.8935 94.2966 24.0161C93.9949 24.1388 93.6337 24.2001 93.2127 24.2001ZM93.5359 23.0069C93.9469 23.0069 94.2982 22.9257 94.5899 22.7633C94.8849 22.6009 95.1086 22.3888 95.261 22.1269C95.4168 21.8618 95.4947 21.5784 95.4947 21.2768V20.2924C95.4417 20.3455 95.3389 20.3952 95.1865 20.4416C95.0373 20.4847 94.8666 20.5228 94.6744 20.5559C94.4822 20.5857 94.2949 20.6139 94.1126 20.6404C93.9303 20.6636 93.7778 20.6835 93.6552 20.7001C93.3669 20.7366 93.1034 20.7979 92.8647 20.884C92.6294 20.9702 92.4405 21.0945 92.298 21.2569C92.1588 21.416 92.0892 21.6281 92.0892 21.8933C92.0892 22.2612 92.2251 22.5396 92.4968 22.7285C92.7686 22.9141 93.115 23.0069 93.5359 23.0069ZM100.588 13.8492V24.0311H99.1011V13.8492H100.588ZM108.45 18.259L107.102 18.4977C107.046 18.3253 106.957 18.1613 106.834 18.0055C106.715 17.8497 106.552 17.7221 106.347 17.6227C106.141 17.5232 105.884 17.4735 105.576 17.4735C105.155 17.4735 104.804 17.568 104.522 17.7569C104.24 17.9425 104.1 18.1828 104.1 18.4778C104.1 18.733 104.194 18.9385 104.383 19.0943C104.572 19.25 104.877 19.3777 105.298 19.4771L106.511 19.7555C107.214 19.9179 107.737 20.1681 108.082 20.5062C108.427 20.8443 108.599 21.2834 108.599 21.8237C108.599 22.2811 108.466 22.6887 108.201 23.0467C107.939 23.4013 107.573 23.6797 107.102 23.8819C106.635 24.0841 106.093 24.1852 105.477 24.1852C104.622 24.1852 103.924 24.0029 103.384 23.6383C102.843 23.2704 102.512 22.7484 102.389 22.0723L103.826 21.8535C103.916 22.228 104.1 22.5114 104.378 22.7036C104.656 22.8926 105.019 22.987 105.467 22.987C105.954 22.987 106.343 22.8859 106.635 22.6838C106.927 22.4783 107.073 22.228 107.073 21.933C107.073 21.6944 106.983 21.4939 106.804 21.3315C106.629 21.1691 106.358 21.0464 105.994 20.9636L104.701 20.6802C103.989 20.5178 103.462 20.2593 103.12 19.9046C102.782 19.55 102.613 19.1009 102.613 18.5573C102.613 18.1066 102.739 17.7122 102.991 17.3741C103.243 17.036 103.591 16.7725 104.035 16.5836C104.479 16.3914 104.988 16.2953 105.561 16.2953C106.387 16.2953 107.036 16.4742 107.51 16.8322C107.984 17.1868 108.297 17.6625 108.45 18.259Z" fill="black"/>
</svg>
